<svg id="_x33_0" enable-background="new 0 0 64 64" height="512" viewBox="0 0 64 64" width="512" xmlns="http://www.w3.org/2000/svg" xmlns:xlink="http://www.w3.org/1999/xlink"><linearGradient id="SVGID_1_" gradientUnits="userSpaceOnUse" x1="31.89" x2="31.89" y1="63" y2="1"><stop offset="0" stop-color="#9f2fff"/><stop offset="1" stop-color="#0bb1d3"/></linearGradient><path d="m29 16c0 .552-.448 1-1 1s-1-.448-1-1 .448-1 1-1 1 .448 1 1zm7-1c-.552 0-1 .448-1 1s.448 1 1 1 1-.448 1-1-.448-1-1-1zm-3 8h-4v2h4c2.206 0 4-1.794 4-4h-2c0 1.103-.897 2-2 2zm0-8h-2v4h2zm-32 44v-18c0-1.103.897-2 2-2h8.212c-2.106-3.638-3.212-7.749-3.212-12 0-9.788 6.086-18.712 15.167-22.312 1.656-2.282 4.297-3.688 7.218-3.688h3.606c3.703 0 6.977 1.843 8.974 4.654 8.044 4.137 13.035 12.29 13.035 21.346 0 11.598-8.271 21.3-19.223 23.521.146.475.223.972.223 1.479v1h10v-6h8v2h-6v10h10v-6h2v8h-14v-6h-10v5c0 1.654-1.346 3-3 3h-4c-1.654 0-3-1.346-3-3v-5h-8v4c0 1.103-.897 2-2 2h-14c-1.103 0-2-.897-2-2zm22-42c-1.103 0-2 .897-2 2s.897 2 2 2zm-9 10c0 4.109 1.399 7.889 3.726 10.922 1.487-4.08 5.118-7.118 9.467-7.817l.386-1.546c-2.367-.877-4.13-2.993-4.499-5.56h-.08c-2.206 0-4-1.794-4-4 0-.849.27-1.634.724-2.283l-.481-2.407c-3.349 3.363-5.243 7.89-5.243 12.691zm27-6c1.103 0 2-.897 2-2s-.897-2-2-2zm-4.579 7.56.386 1.546c4.349.699 7.979 3.737 9.467 7.817 2.327-3.034 3.726-6.814 3.726-10.923 0-4.802-1.894-9.328-5.242-12.689l-.481 2.407c.453.648.723 1.433.723 2.282 0 2.206-1.794 4-4 4h-.08c-.37 2.567-2.133 4.683-4.499 5.56zm-6.885.417-.407 1.627 2.823 2.147 2.915-2.156-.404-1.617c-.153.009-.307.022-.463.022h-4c-.156 0-.31-.013-.464-.023zm6.73 3.07-2.279 1.686 2.267.897.502-2.51c-.161-.031-.326-.05-.49-.073zm-3.508 3.35-.809-.32-.815.33.531 1.593h.558zm-5.032-3.349c-.161.022-.323.041-.482.071l.5 2.501 2.196-.889zm-8.448 7.674c2.428 2.428 5.546 4.164 9.029 4.894l1.597-6.572-.629-1.885-3.02 1.221-.937-4.685c-2.983 1.215-5.28 3.818-6.04 7.027zm11.015 5.192c.563.053 1.131.086 1.707.086.57 0 1.132-.033 1.688-.086l-1.519-5.914h-.439zm14.429-5.192c-.76-3.209-3.057-5.812-6.041-7.028l-.935 4.677-3.125-1.237-.634 1.903 1.692 6.583c3.489-.728 6.611-2.466 9.043-4.898zm-5.722-25.722c0-.551-.449-1-1-1h-5c-1.773 0-3.369-.773-4.468-2h-.532c-1.654 0-3 1.346-3 3v8c0 2.757 2.243 5 5 5h4c2.757 0 5-2.243 5-5zm-12 39v-1c0-.511.079-1.012.228-1.49-2.922-.587-5.702-1.696-8.228-3.331v5.821zm8 2h-6v5c0 .551.449 1 1 1h4c.551 0 1-.449 1-1zm-.241-4.163c-.906.104-1.826.163-2.759.163-.929 0-1.846-.071-2.755-.174-.157.369-.245.766-.245 1.174v1h6v-1c0-.405-.087-.797-.241-1.163zm9.793-41.912c.268.916.419 1.88.437 2.877 4.458 3.811 7.011 9.32 7.011 15.198 0 11.028-8.972 20-20 20-4.963 0-9.5-1.828-13-4.832v2.565c3.789 2.785 8.269 4.267 13 4.267 12.131 0 22-9.869 22-22 0-7.319-3.553-13.997-9.448-18.075zm-20.623-1.553-.116.288-.45.3c-1.48.986-2.363 2.637-2.363 4.415 0 .349.035.699.103 1.041l.377 1.888c.47-.194.982-.304 1.52-.304v-1c0-2.539 1.903-4.643 4.357-4.959-.231-.637-.357-1.325-.357-2.041h2c0 2.206 1.794 4 4 4h5c1.654 0 3 1.346 3 3v1c.538 0 1.05.11 1.52.304l.306-1.528c.115-.58.174-1.174.174-1.767 0-4.967-4.042-9.009-9.009-9.009h-3.606c-2.86 0-5.394 1.716-6.456 4.372zm-10.355 31.628h2.465c-2.524-3.347-4.039-7.495-4.039-12 0-5.89 2.563-11.408 7.037-15.22.096-1.181.474-2.301 1.09-3.282-6.189 3.998-10.127 10.968-10.127 18.502 0 4.294 1.242 8.428 3.574 12zm-10.574 20h14.001l-.001-18h-14zm4-16h-2v2h2zm2 2h6v-2h-6zm-4 4h10v-2h-10zm0 4h10v-2h-10zm46.707-.707-1.414 1.414 3.79 3.79 8.698-10.873-1.562-1.249-7.302 9.127zm-46.707 4.707h10v-2h-10z" fill="url(#SVGID_1_)"/></svg>