<svg id="_x33_0" enable-background="new 0 0 64 64" height="512" viewBox="0 0 64 64" width="512" xmlns="http://www.w3.org/2000/svg"><g><path d="m37 53h8v2h-8z"/><path d="m19.258 53h7.742v2h-7.742z"/><path d="m51.707 52.293-1.414 1.414 3.79 3.79 8.698-10.872-1.562-1.25-7.302 9.128z"/><path d="m59 59h-10v-10h6v-2h-8v14h14v-8h-2z"/><path d="m19.278 39.722c2.428 2.428 5.546 4.164 9.029 4.894l1.597-6.572-.629-1.885-3.02 1.221-.937-4.685c-2.983 1.215-5.28 3.818-6.04 7.027z"/><path d="m39 22v-8c0-.551-.449-1-1-1h-5c-1.773 0-3.369-.773-4.468-2h-.532c-1.654 0-3 1.346-3 3v8c0 2.757 2.243 5 5 5h4c2.757 0 5-2.243 5-5zm-8-7h2v4h-2zm-3 2c-.552 0-1-.448-1-1s.448-1 1-1 1 .448 1 1-.448 1-1 1zm5 8h-4v-2h4c1.103 0 2-.897 2-2h2c0 2.206-1.794 4-4 4zm3-8c-.552 0-1-.448-1-1s.448-1 1-1 1 .448 1 1-.448 1-1 1z"/><path d="m36.254 34.629.502-2.51c-.161-.03-.326-.05-.49-.072l-2.279 1.686z"/><path d="m43 19c0-1.103-.897-2-2-2v4c1.103 0 2-.897 2-2z"/><path d="m44.722 39.722c-.76-3.209-3.057-5.812-6.041-7.028l-.935 4.677-3.125-1.237-.634 1.903 1.692 6.583c3.489-.728 6.611-2.466 9.043-4.898z"/><path d="m32.758 35.397-.809-.32-.815.33.531 1.593h.558z"/><path d="m32 45c.57 0 1.132-.033 1.688-.086l-1.519-5.914h-.439l-1.437 5.914c.563.053 1.131.086 1.707.086z"/><path d="m21.48 15.304c.47-.194.982-.304 1.52-.304v-1c0-2.539 1.903-4.643 4.357-4.959-.231-.637-.357-1.325-.357-2.041h2c0 2.206 1.794 4 4 4h5c1.654 0 3 1.346 3 3v1c.538 0 1.05.11 1.52.304l.306-1.528c.115-.58.174-1.174.174-1.767 0-4.967-4.042-9.009-9.009-9.009h-3.606c-2.86 0-5.395 1.716-6.457 4.372l-.115.288-.45.3c-1.48.986-2.363 2.637-2.363 4.415 0 .349.035.699.103 1.041z"/><path d="m34.463 28.977c-.153.01-.307.023-.463.023h-4c-.156 0-.31-.013-.464-.023l-.407 1.627 2.823 2.147 2.915-2.156z"/><path d="m27.726 32.048c-.161.022-.323.041-.482.071l.5 2.501 2.196-.889z"/><path d="m32 51c-.929 0-1.846-.071-2.755-.174-.157.369-.245.766-.245 1.174v1h6v-1c0-.405-.087-.797-.241-1.163-.906.104-1.826.163-2.759.163z"/><path d="m3 41v18h14.001l-.001-18zm2 2h2v2h-2zm10 14h-10v-2h10zm0-4h-10v-2h10zm0-4h-10v-2h10zm0-4h-6v-2h6z"/><path d="m54 27c0-7.319-3.553-13.997-9.448-18.075.268.916.419 1.88.437 2.877 4.458 3.811 7.011 9.32 7.011 15.198 0 11.028-8.972 20-20 20-4.963 0-9.5-1.828-13-4.832v2.565c3.789 2.785 8.269 4.267 13 4.267 12.131 0 22-9.869 22-22z"/><path d="m29 60c0 .551.449 1 1 1h4c.551 0 1-.449 1-1v-5h-6z"/><path d="m20.127 8.497c-6.189 3.999-10.127 10.969-10.127 18.503 0 4.294 1.242 8.428 3.574 12h2.465c-2.524-3.347-4.039-7.495-4.039-12 0-5.89 2.563-11.408 7.037-15.22.096-1.181.474-2.301 1.09-3.283z"/><path d="m23 21v-4c-1.103 0-2 .897-2 2s.897 2 2 2z"/></g></svg>