<svg xmlns="http://www.w3.org/2000/svg" xmlns:xlink="http://www.w3.org/1999/xlink" viewBox="0 0 900 600"><defs><style>.cls-1{fill:none;}.cls-2{fill:url(#linear-gradient);}.cls-3{fill:#8d90d1;}.cls-4{fill:url(#linear-gradient-2);}.cls-5{fill:#c3c5e4;}.cls-6{fill:#999dd5;}.cls-7{fill:#c1c5e4;}.cls-8{fill:#dadeee;}.cls-9{fill:#9b9ed6;}.cls-10{fill:#bfc1e5;}.cls-11{fill:#9da0d5;}.cls-12{fill:#c3c7e4;}.cls-13{fill:#a0a1d6;}.cls-14{fill:#c2c4e6;}.cls-15{fill:#a1a2d6;}.cls-16{fill:#c8c9e5;}.cls-17{fill:#a3a4d7;}.cls-18{fill:#c5c5e6;}.cls-19{fill:#a6a6d7;}.cls-20{fill:#cdcee8;}.cls-21{fill:#a7a8d8;}.cls-22{fill:#c8c8e7;}.cls-23{fill:#a9a9d8;}.cls-24{fill:#d0d1e8;}.cls-25{fill:#acaad9;}.cls-26{fill:#cbcae7;}.cls-27{fill:url(#linear-gradient-3);}.cls-28{fill:url(#linear-gradient-4);}.cls-29{fill:url(#linear-gradient-5);}.cls-30{fill:#b3b3da;}.cls-31,.cls-53{fill:#fff;}.cls-32{fill:#bdbfdf;}.cls-33{fill:#dbddee;}.cls-34{fill:url(#linear-gradient-6);}.cls-35{fill:#464395;}.cls-36{fill:url(#linear-gradient-7);}.cls-37{fill:#413989;}.cls-38{fill:#3f3f8a;}.cls-39{fill:url(#linear-gradient-8);}.cls-40{fill:#3c0050;}.cls-41{fill:#470e59;}.cls-42{fill:#4b2f74;}.cls-43{fill:#445298;}.cls-44{fill:url(#linear-gradient-9);}.cls-45{fill:#b63d74;}.cls-46{fill:url(#linear-gradient-10);}.cls-47{fill:#cb4b74;}.cls-48{fill:url(#linear-gradient-11);}.cls-49{fill:url(#linear-gradient-12);}.cls-50{fill:#f49da0;}.cls-51{fill:#453da3;}.cls-52{fill:url(#linear-gradient-13);}.cls-53{fill-opacity:0.4;}.cls-54{fill:#dfdeee;}.cls-55{fill:#514ccf;}.cls-56{fill:#3082ed;}.cls-57{fill:#3d69c3;}.cls-58{fill:#3254b0;}.cls-59{fill:url(#linear-gradient-14);}.cls-60{fill:url(#linear-gradient-15);}.cls-61{fill:url(#linear-gradient-16);}.cls-62{fill:url(#linear-gradient-17);}.cls-63{fill:#2b54b9;}.cls-64{fill:#3562bd;}.cls-65{fill:url(#linear-gradient-18);}.cls-66{fill:url(#linear-gradient-19);}</style><linearGradient id="linear-gradient" x1="460.73" y1="74" x2="460.73" y2="537" gradientUnits="userSpaceOnUse"><stop offset="0.26" stop-color="#dfdfee"/><stop offset="1" stop-color="#d2d7ec"/></linearGradient><linearGradient id="linear-gradient-2" x1="668.4" y1="77" x2="668.4" y2="306.81" gradientUnits="userSpaceOnUse"><stop offset="0" stop-color="#d3d1e7"/><stop offset="1" stop-color="#cccce6"/></linearGradient><linearGradient id="linear-gradient-3" x1="775.46" y1="344.33" x2="775.46" y2="534.31" gradientUnits="userSpaceOnUse"><stop offset="0" stop-color="#cacce6"/><stop offset="1" stop-color="#c1c5e4"/></linearGradient><linearGradient id="linear-gradient-4" x1="696.5" y1="344.33" x2="696.5" y2="534.31" xlink:href="#linear-gradient-3"/><linearGradient id="linear-gradient-5" x1="377.5" y1="344.33" x2="377.5" y2="534.31" xlink:href="#linear-gradient-3"/><linearGradient id="linear-gradient-6" x1="435.66" y1="441.67" x2="435.66" y2="526.33" gradientUnits="userSpaceOnUse"><stop offset="0" stop-color="#fda7b0"/><stop offset="1" stop-color="#fda3ae"/></linearGradient><linearGradient id="linear-gradient-7" x1="520.07" y1="310" x2="520.07" y2="410.02" gradientUnits="userSpaceOnUse"><stop offset="0" stop-color="#f3989e"/><stop offset="1" stop-color="#f1929c"/></linearGradient><linearGradient id="linear-gradient-8" x1="458.65" y1="281" x2="458.65" y2="413.74" gradientUnits="userSpaceOnUse"><stop offset="0" stop-color="#5a3174"/><stop offset="1" stop-color="#4d2a71"/></linearGradient><linearGradient id="linear-gradient-9" x1="526.02" y1="170.67" x2="526.02" y2="253.16" gradientUnits="userSpaceOnUse"><stop offset="0" stop-color="#f49da0"/><stop offset="1" stop-color="#f49aa0"/></linearGradient><linearGradient id="linear-gradient-10" x1="384.58" y1="162.33" x2="384.58" y2="337.66" gradientUnits="userSpaceOnUse"><stop offset="0" stop-color="#f46576"/><stop offset="1" stop-color="#f35c72"/></linearGradient><linearGradient id="linear-gradient-11" x1="358.71" y1="219" x2="358.71" y2="292.46" gradientUnits="userSpaceOnUse"><stop offset="0" stop-color="#fdb3b4"/><stop offset="0.03" stop-color="#fdb3b4"/><stop offset="0.97" stop-color="#fdafb2"/><stop offset="1" stop-color="#fdafb2"/></linearGradient><linearGradient id="linear-gradient-12" x1="416.42" y1="105" x2="416.42" y2="172.77" gradientUnits="userSpaceOnUse"><stop offset="0" stop-color="#fdb4b5"/><stop offset="1" stop-color="#fdb3b5"/></linearGradient><linearGradient id="linear-gradient-13" x1="395.41" x2="395.41" y2="172.77" xlink:href="#linear-gradient-12"/><linearGradient id="linear-gradient-14" x1="629.37" y1="193.5" x2="629.37" y2="238.75" gradientUnits="userSpaceOnUse"><stop offset="0" stop-color="#8a4344"/><stop offset="1" stop-color="#874243"/></linearGradient><linearGradient id="linear-gradient-15" x1="617.98" x2="617.98" xlink:href="#linear-gradient-14"/><linearGradient id="linear-gradient-16" x1="581.75" y1="170.67" x2="581.75" y2="253.16" xlink:href="#linear-gradient-9"/><linearGradient id="linear-gradient-17" x1="358.11" y1="391" x2="358.11" y2="534.22" gradientUnits="userSpaceOnUse"><stop offset="0" stop-color="#2679ec"/><stop offset="1" stop-color="#1d70eb"/></linearGradient><linearGradient id="linear-gradient-18" x1="695.22" y1="391" x2="695.22" y2="534.22" xlink:href="#linear-gradient-17"/><linearGradient id="linear-gradient-19" x1="579.48" y1="391" x2="579.48" y2="534.22" xlink:href="#linear-gradient-17"/></defs><title>ill_500</title><g id="Layer_2" data-name="Layer 2"><g id="ill_500"><g id="export"><g id="background"><rect class="cls-1" width="900" height="600"/><path class="cls-2" d="M233,541.5C60,439.23,217.76,356.26,270,339.74,418,293,451.75,59.48,661,71c192,10.57,2,236.14,34,326.31,15,42.16,138.41,68.09,24.71,146.39Z"/><path id="ground" class="cls-3" d="M80.39,540l55-.42,45-.35,89.9-.43,179.8-.31,89.9.13c30,.05,59.94.05,89.91.23l89.9.42c30,.24,69.93.39,99.9.73a1.47,1.47,0,0,1,0,2.94c-30,.34-69.94.49-99.9.73l-89.9.42c-30,.18-59.94.18-89.91.23l-89.9.13-179.8-.31-89.9-.43-45-.35-55-.42a1.47,1.47,0,0,1,0-2.94Z"/><path class="cls-4" d="M594.38,305.81a1,1,0,0,1-1-1V121.71h14.47V207a1,1,0,0,0,2,0V121.71H745.42c-.36-1.36-.75-2.69-1.18-4H609.85v-2h133.7c-.49-1.36-1-2.69-1.62-4H609.85v-2H741c-.67-1.36-1.39-2.7-2.17-4h-129v-2H737.57q-1.35-2.05-2.88-4H609.85v-2H733a53.44,53.44,0,0,0-3.84-4H609.85v-2H727a61.55,61.55,0,0,0-5.26-4H609.85v-2H718.6a75.7,75.7,0,0,0-7.56-4H609.85v-2h96.46a106.5,106.5,0,0,0-12.52-4H609.85v-2h74.79A187.77,187.77,0,0,0,661,71a243,243,0,0,0-53.5,2.71h.35v2H597.08q-2.88.63-5.7,1.32V304.81a3,3,0,0,0,3,3H710.93c.22-.67.45-1.33.67-2Zm-1-226.1h14.47v2H593.38Zm0,6h14.47v2H593.38Zm0,6h14.47v2H593.38Zm0,6h14.47v2H593.38Zm0,6h14.47v2H593.38Zm0,6h14.47v2H593.38Zm0,6h14.47v2H593.38Z"/><path class="cls-5" d="M725.55,505.5h-20.1a1.8,1.8,0,0,1-2-1.64V483.14a1.8,1.8,0,0,1,2-1.64h20.1a1.8,1.8,0,0,1,2,1.64v20.72A1.8,1.8,0,0,1,725.55,505.5ZM705,503.86a.93.93,0,0,0,.42.11h20.1a.55.55,0,0,0,.43-.15V483.17a.58.58,0,0,0-.42-.14h-20.1a.55.55,0,0,0-.43.15v20.68Z"/><path class="cls-5" d="M715.5,501.08a7.58,7.58,0,1,1,7.58-7.58A7.59,7.59,0,0,1,715.5,501.08Zm0-13.65a6.07,6.07,0,1,0,6.07,6.07A6.07,6.07,0,0,0,715.5,487.43Z"/></g><g id="server"><g id="_1" data-name="1"><rect class="cls-6" x="122.31" y="488.48" width="173.87" height="51.52"/><path class="cls-7" d="M298.19,488.48H122.31c-4.31,0-7.81,3.13-7.81,7V533c0,3.86,3.5,7,7.81,7H134v-2.75c0-3.86,3.49-7,7.81-7h89c4.32,0,7.82,3.12,7.82,7V540h59.54c4.31,0,7.81-3.12,7.81-7V495.46C306,491.61,302.5,488.48,298.19,488.48Z"/><line class="cls-8" x1="274.21" y1="512.28" x2="239.04" y2="512.28"/><path class="cls-9" d="M274.21,513.28H239a1,1,0,1,1,0-2h35.17a1,1,0,1,1,0,2Z"/><circle class="cls-10" cx="271.18" cy="512.27" r="8.32"/><path class="cls-9" d="M271.18,521.59a9.32,9.32,0,1,1,9.32-9.32A9.33,9.33,0,0,1,271.18,521.59Zm0-16.64a7.32,7.32,0,1,0,7.32,7.32A7.33,7.33,0,0,0,271.18,505Z"/></g><g id="_2" data-name="2"><rect class="cls-11" x="122.31" y="427.41" width="175.87" height="61.11"/><path class="cls-12" d="M298.19,427.41H122.31c-4.31,0-7.81,3.13-7.81,7V472c0,3.85,3.5,7,7.81,7H134v-2.75c0-3.86,3.49-7,7.81-7h89c4.32,0,7.82,3.12,7.82,7v2.75h59.54c4.31,0,7.81-3.13,7.81-7V434.39C306,430.54,302.5,427.41,298.19,427.41Z"/><line class="cls-8" x1="274.21" y1="451.21" x2="239.04" y2="451.21"/><path class="cls-13" d="M274.21,452.21H239a1,1,0,0,1,0-2h35.17a1,1,0,0,1,0,2Z"/><circle class="cls-14" cx="271.18" cy="451.26" r="8.32"/><path class="cls-13" d="M271.18,460.58a9.32,9.32,0,1,1,9.32-9.32A9.33,9.33,0,0,1,271.18,460.58Zm0-16.64a7.32,7.32,0,1,0,7.32,7.32A7.33,7.33,0,0,0,271.18,443.94Z"/></g><g id="_2-2" data-name="2"><rect class="cls-15" x="122.31" y="366.34" width="175.87" height="61.11"/><path class="cls-16" d="M298.19,366.34H122.31c-4.31,0-7.81,3.12-7.81,7v37.56c0,3.85,3.5,7,7.81,7H134V415.1c0-3.85,3.49-7,7.81-7h89c4.32,0,7.82,3.12,7.82,7v2.76h59.54c4.31,0,7.81-3.13,7.81-7V373.32C306,369.46,302.5,366.34,298.19,366.34Z"/><line class="cls-8" x1="274.21" y1="390.14" x2="239.04" y2="390.14"/><path class="cls-17" d="M274.21,391.14H239a1,1,0,1,1,0-2h35.17a1,1,0,0,1,0,2Z"/><circle class="cls-18" cx="271.18" cy="390.25" r="8.32"/><path class="cls-17" d="M271.18,399.57a9.32,9.32,0,1,1,9.32-9.32A9.33,9.33,0,0,1,271.18,399.57Zm0-16.64a7.32,7.32,0,1,0,7.32,7.32A7.33,7.33,0,0,0,271.18,382.93Z"/></g><g id="_2-3" data-name="2"><rect class="cls-19" x="122.31" y="305.27" width="175.87" height="61.11"/><path class="cls-20" d="M298.19,305.27H122.31c-4.31,0-7.81,3.12-7.81,7V349.8c0,3.86,3.5,7,7.81,7H134V354c0-3.85,3.49-7,7.81-7h89c4.32,0,7.82,3.13,7.82,7v2.75h59.54c4.31,0,7.81-3.12,7.81-7V312.25C306,308.39,302.5,305.27,298.19,305.27Z"/><line class="cls-8" x1="274.21" y1="329.06" x2="239.04" y2="329.06"/><path class="cls-21" d="M274.21,330.06H239a1,1,0,0,1,0-2h35.17a1,1,0,0,1,0,2Z"/><circle class="cls-22" cx="271.18" cy="329.24" r="8.32"/><path class="cls-21" d="M271.18,338.56a9.32,9.32,0,1,1,9.32-9.32A9.33,9.33,0,0,1,271.18,338.56Zm0-16.64a7.32,7.32,0,1,0,7.32,7.32A7.33,7.33,0,0,0,271.18,321.92Z"/></g><g id="_2-4" data-name="2"><rect class="cls-23" x="122.31" y="244.2" width="175.87" height="61.11"/><path class="cls-24" d="M298.19,244.2H122.31c-4.31,0-7.81,3.12-7.81,7v37.56c0,3.86,3.5,7,7.81,7H134V293c0-3.85,3.49-7,7.81-7h89c4.32,0,7.82,3.13,7.82,7v2.75h59.54c4.31,0,7.81-3.12,7.81-7V251.17C306,247.32,302.5,244.2,298.19,244.2Z"/><line class="cls-8" x1="274.21" y1="267.99" x2="239.04" y2="267.99"/><path class="cls-25" d="M274.21,269H239a1,1,0,1,1,0-2h35.17a1,1,0,1,1,0,2Z"/><circle class="cls-26" cx="271.18" cy="267.3" r="8.32"/><path class="cls-25" d="M271.18,276.62a9.32,9.32,0,1,1,9.32-9.32A9.33,9.33,0,0,1,271.18,276.62Zm0-16.63a7.32,7.32,0,1,0,7.32,7.31A7.33,7.33,0,0,0,271.18,260Z"/></g></g><g id="laptop"><path class="cls-27" d="M790,542.09a2,2,0,0,1-2-1.72L758.93,334.22a2,2,0,0,1,4-.56L792,539.81a2,2,0,0,1-1.7,2.26Z"/><path class="cls-28" d="M680,540.09l-.29,0A2,2,0,0,1,678,537.8L711,313a2,2,0,0,1,4,.58l-33,224.8A2,2,0,0,1,680,540.09Z"/><path class="cls-29" d="M361,540.09l-.29,0A2,2,0,0,1,359,537.8L392,313a2,2,0,0,1,4,.58l-33,224.8A2,2,0,0,1,361,540.09Z"/><rect class="cls-30" x="451" y="329.61" width="338" height="13.35" rx="3"/><g id="laptop-2" data-name="laptop"><path class="cls-31" d="M592.24,327.86l47-4.51a22.73,22.73,0,0,1,2.41-.06L735.71,326c1.69.05,2.16.25.87.37l-.07,2.56-47.61,4.48a22.42,22.42,0,0,1-2.39.06l-92.57-2.69c-1.67-.05-1.78-.4-1.78-.4Z"/><path class="cls-31" d="M767.28,266.22l-93.42-2.71a2.22,2.22,0,0,0-2,1.17l-30.6,56.07a2.31,2.31,0,0,0,1.89,3.44l94.11,2.74a2.25,2.25,0,0,0,2-1.2l29.93-56.12A2.3,2.3,0,0,0,767.28,266.22Z"/><path class="cls-25" d="M760.42,269.87l-83.11-2.42a2,2,0,0,0-1.8,1l-27.2,49a2,2,0,0,0,1.67,3L733.72,323a2,2,0,0,0,1.8-1l26.62-49.09A2,2,0,0,0,760.42,269.87Z"/><path class="cls-32" d="M750,279l-71.7-2.08a1.7,1.7,0,0,0-1.55.89l-17.49,32a1.74,1.74,0,0,0,1.45,2.6l72.23,2.1a1.74,1.74,0,0,0,1.56-.9l17-32A1.75,1.75,0,0,0,750,279Z"/><path class="cls-33" d="M731.48,297.26h0l-52.55-1.53a1.5,1.5,0,0,1,0-3H679l52.54,1.53a1.5,1.5,0,0,1,0,3Z"/><path class="cls-33" d="M726.37,305.78h0l-52.54-1.53a1.5,1.5,0,0,1-1.46-1.54,1.45,1.45,0,0,1,1.54-1.45l52.55,1.52a1.5,1.5,0,0,1,0,3Z"/><path class="cls-33" d="M713.12,287.84h0L683.92,287a1.49,1.49,0,0,1-1.45-1.54A1.52,1.52,0,0,1,684,284l29.15.88a1.5,1.5,0,0,1,1.46,1.54A1.52,1.52,0,0,1,713.12,287.84Z"/></g></g><g id="character"><g id="legs"><path class="cls-34" d="M396.32,414.17C420.4,478.85,450,526.49,450,526.49s-10.17,9.51-36,14.6h61s-29.25-65.17-33.13-123.65C428,420.4,425.7,420.49,396.32,414.17Z"/><path class="cls-35" d="M449.79,526.67c-1.53,1.33-12,9.74-35.79,14.42h61s-2.11-4.7-5.26-12.69C462.82,530.93,456.48,529.83,449.79,526.67Z"/><path class="cls-36" d="M518,415.67s50-90.05,23-121.86c-11.23-13.23-30.28-14-49.87-10.48,5,21,14.66,31.92,12.49,49.7A115.48,115.48,0,0,1,515,331s1,48.11-18,85.07c0,0,2,18.5,44,28.23C541,444.27,522,427.34,518,415.67Z"/><path class="cls-37" d="M518.29,416.46c-9.39-.28-13.29-2.29-16.44-11.1-1.45,3.62-3.06,7.2-4.85,10.68,0,0,2,18.5,44,28.23C541,444.27,523,428.44,518.29,416.46Z"/><path class="cls-38" d="M518.29,416.46c-9.39-.28-13.29-2.29-16.44-11.1-1.45,3.62-3.06,7.2-4.85,10.68,0,0,2,18.5,44,28.23C541,444.27,523,428.44,518.29,416.46Z"/><path class="cls-39" d="M444.17,438c-4.3-28.06-2.84-55,5.83-77.61,0,0,25.67-24.39,65-29.42,17.69-9.15,32.5-23.22,38.69-42.26a25.23,25.23,0,0,0-2.69-3.9C524,253,446,293,446,293s-77.95-57-82,8.57c-3.06,49.6,12,98.81,30,138.51C412.51,442.87,429.33,442.75,444.17,438Z"/><path class="cls-40" d="M446,293s-77.95-57-82,8.57a240.79,240.79,0,0,0,4.75,62.25c44.08-16.11,57.7-54.73,88.29-75.9C450.22,290.8,446,293,446,293Z"/><path class="cls-41" d="M553.69,288.71a25.23,25.23,0,0,0-2.69-3.9c-11.12-13.1-30.89-14-50.3-10.58-21.78,17-39,50.44-50.7,86.16,0,0,25.67-24.39,65-29.42C532.69,321.82,547.5,307.75,553.69,288.71Z"/><path class="cls-42" d="M515,331c17.69-9.15,32.5-23.22,38.69-42.26a25.23,25.23,0,0,0-2.69-3.9,31.18,31.18,0,0,0-10.55-8A193.28,193.28,0,0,1,500,333.93,116.61,116.61,0,0,1,515,331Z"/><path class="cls-43" d="M394,440c18.52,2.83,35.34,2.71,50.18-2q-1.47-9.57-2-18.93c-17,3.79-34.55,3.38-58.35-3.56C387,424,390.45,432.21,394,440Z"/></g><g id="body"><path class="cls-44" d="M471.5,169.5C500,177,514,183.8,520.63,189.14s39,30.53,47,40.53c0,0,7.48-15.82,23.16.91,5,5.34,1.79,22.3-12.33,28-15.17,6.17-15.5-13-15.5-13s-44.67-38.34-104-43.34Z"/><path class="cls-45" d="M293,216.5c4,22.17,37,25.26,44.31,22.38,8-25.55-28-34.55-28-34.55Z"/><path class="cls-46" d="M351.06,220.43c-9,48-3.06,115.57.94,128.07,58-4,71.8-45.11,106.65-61.3-16.65-18.2-22.42-54.43-21-75.7,0,0,19.07,1.6,33.84,8,0,0,10.5-29.5,0-50,0,0-57-19.25-126-11.25-9.64,1.12-35,23.25-52.5,58.25,0,0,25.17-8,44.31,22.38A71.2,71.2,0,0,1,351.06,220.43Z"/><path class="cls-47" d="M471.5,169.5S448,161.55,412.85,158c18.09,2.68,26.65,16.52,24.81,53.51,0,0,19.07,1.6,33.84,8C471.5,219.5,482,190,471.5,169.5Z"/><path id="hand" class="cls-48" d="M405.33,295.38s-54.49,11.07-113.5-17.88c0,0-10.33-24.17,14-61.67,16.57,1.38,32.12,16.83,31.48,23-7.58,12.46-7.48,19.12-7.48,19.12s16.12,16.74,65.55,24.09c0,0-2.58-5.44.47-12.78,3.78-9.11,17-13.14,24.45-8.68,16.83,10.08,1,8-6.17,13.84C407.83,279.33,405.78,289.27,405.33,295.38Z"/><path class="cls-31" d="M365.2,156.65c8.45,11.6,24.8,26.7,34.6,26.7,9.23,0,13.69-9.87,6.75-25.93A320.33,320.33,0,0,0,365.2,156.65Z"/></g><g id="head"><path class="cls-49" d="M403.25,156.54l0,0c-1.47,2.29-1.4,3.36-2.08,5.28,0,0,1.4.93,2.45,6.07,3.15,15.48-15.23,8.2-24.69-11.64,0,0,0-9.16,6.38-37.39,2.6-30.45,14-38.79,14-38.79s62.2-17.55,53.87,48.41C444.51,194,404.33,157.42,403.25,156.54Z"/><path class="cls-50" d="M403.23,156.52c-1.47,2.29-1.4,3.36-2.08,5.28-11-11.6-7.87-17.4-6-13.74A27.51,27.51,0,0,0,403.23,156.52Z"/><path class="cls-51" d="M447.66,109c-17.09-7.14-33.16-6.46-39.31,8,0,0-19.71-4.48-26.58,18.63,0,0-4.48-28.53,2.7-47.33.38-1,.81-2,1.28-2.94,4.54-9.28,13-15.29,28.1-12.46,19.65,3.66,40.95,3.61,48.57-1.58a7.58,7.58,0,0,0,.93-.71,6.89,6.89,0,0,1,.23,1c.64,4-2.33,7.67-2.33,7.67,4.39-.45,7.15-4.54,8.36-6.83a15.2,15.2,0,0,0,.73-1.57c.16.39.3.8.43,1.22C475.45,86.92,464.3,116,447.66,109Z"/><path class="cls-51" d="M388.08,76a23.05,23.05,0,0,1,6.23-5A24.64,24.64,0,0,1,402,68.36a33.14,33.14,0,0,1,8.08-.33,75.62,75.62,0,0,1,7.87,1.17c5.14.87,10.32,1.48,15.52,2a134.2,134.2,0,0,0,15.67.43.19.19,0,0,1,.2.18.19.19,0,0,1-.16.2,84.32,84.32,0,0,1-15.8.83c-2.64-.07-5.28-.23-7.91-.5s-5.26-.58-7.87-1-5.15-1-7.7-1.16a35.39,35.39,0,0,0-7.63.09,25.7,25.7,0,0,0-13.86,6.08.21.21,0,0,1-.3,0A.21.21,0,0,1,388.08,76Z"/><path class="cls-52" d="M400.23,128.53l2.48-20.92C388.46,100.15,379.76,120.43,400.23,128.53Z"/><path class="cls-53" d="M444.19,128.51c-1.79,8.58-.06,16.21,3.88,17s8.55-5.51,10.31-14.08,0-16.1-3.9-16.91S446,120,444.19,128.51Z"/><path class="cls-31" d="M448.76,146.35a4,4,0,0,1-.84-.08,5,5,0,0,1-3.14-2.34c-2.14-3.25-2.65-9.22-1.33-15.57h0c1.89-9.07,6.79-15.46,11.18-14.56s6.34,8.73,4.48,17.8a28.37,28.37,0,0,1-4.47,10.85C452.78,145,450.72,146.35,448.76,146.35Zm5-31.13c-3.33,0-7.28,5.9-8.85,13.45h0c-1.23,5.88-.79,11.55,1.11,14.44a3.54,3.54,0,0,0,2.19,1.69c1.57.32,3.47-.85,5.21-3.23a26.94,26.94,0,0,0,4.21-10.27c1.64-8,.12-15.32-3.32-16A2.5,2.5,0,0,0,453.77,115.22Z"/><path class="cls-54" d="M454.63,113.8a5.16,5.16,0,0,0-.78-.08c0,.5,0,1,0,1.51a3,3,0,0,1,.42,0c3.44.71,5,8,3.32,16a26.94,26.94,0,0,1-4.21,10.27,8.36,8.36,0,0,1-3.57,3.06c-.17.57-.34,1.13-.52,1.68,1.78-.24,3.62-1.56,5.3-3.86a28.37,28.37,0,0,0,4.47-10.85C461,122.53,459,114.71,454.63,113.8Z"/><path class="cls-53" d="M418.46,122.92c-1.9,8.84,1.34,17,7.24,18.23s12.17-5,14-13.84-1.41-16.9-7.25-18.12S420.35,114.11,418.46,122.92Z"/><path class="cls-31" d="M427.17,142.05a7.46,7.46,0,0,1-1.63-.17,9.19,9.19,0,0,1-5.8-4.2c-2.45-3.77-3.21-9.35-2-14.92,2-9.18,8.65-15.6,14.89-14.3a9.12,9.12,0,0,1,5.77,4.19c2.45,3.74,3.22,9.27,2.06,14.81C438.68,135.92,432.94,142.05,427.17,142.05ZM431,109.79c-5,0-10.12,5.6-11.77,13.28h0c-1.11,5.19-.43,10.35,1.81,13.79a7.74,7.74,0,0,0,4.85,3.56c5.48,1.12,11.37-4.82,13.13-13.26,1.08-5.16.39-10.28-1.84-13.69a7.7,7.7,0,0,0-4.83-3.54A6.19,6.19,0,0,0,431,109.79Z"/><path class="cls-55" d="M463.58,71.61c-7.93,18-27.77,15.12-45.29,12.58-12.87-1.88-25-3.64-31.94,2.21a13.88,13.88,0,0,0-1.88,1.95c.38-1,.81-2,1.28-2.94,7.33-6,19.65-4.24,32.71-2.35,17.87,2.6,36.33,5.29,44-11.69a7.58,7.58,0,0,0,.93-.71A6.89,6.89,0,0,1,463.58,71.61Z"/><path class="cls-55" d="M464.38,91.59c-7.22,6.13-21.76,4-52.08-.59h0a.59.59,0,0,1-.46-.65.57.57,0,0,1,.66-.48c30,4.54,44.28,6.69,51.16.86,4.1-3.47,5.52-9.45,6-18.28a15.2,15.2,0,0,0,.73-1.57c.16.39.3.8.43,1.22C470.33,81.47,468.84,87.81,464.38,91.59Z"/></g><g id="coffee_copy_2" data-name="coffee copy 2"><path class="cls-56" d="M632.34,241.84l-20.79,36.67s-6.13,2.17-18.54-5-14.38-13.64-14.38-13.64l13.1-23.11.5-.87,3.31-5.85.59-1,3.29-5.8s7.6-.29,18.3,5.77S632.34,241.84,632.34,241.84Z"/><path class="cls-57" d="M596.27,229.05l-.14-.08-.59,1,.24-.1c3.32,1.89,2,6.57-1.34,6.57a4.67,4.67,0,0,1-2.18-.6l0,0-.5.87.06,0a5.63,5.63,0,0,0,2.65.72,4.23,4.23,0,0,0,4.11-3.23A4.53,4.53,0,0,0,596.27,229.05Z"/><path class="cls-56" d="M595.78,229.91c-18.38-10.42-30.46,15.36-14,24.7l3.11-5.49c-9.82-5.3-2.23-18.4,7.59-13.1Z"/><path class="cls-58" d="M628,240.72c-2.82,1.19-7.55-.08-12.16-2.37-6.53-3.24-12.8-8.52-13.07-11.8,4.26-.89,13,2.68,19.29,7.67A23.85,23.85,0,0,1,628,240.72Z"/><path class="cls-59" d="M628,240.72c-2.82,1.19-7.55-.08-12.16-2.37a15,15,0,0,0,6.22-4.13c2.91-3.41,3.51-8.14,1.42-13.73-3.71-9.92,4.11-7.1,4.5-7C614.38,178.91,667.56,211.1,628,240.72Z"/><path class="cls-60" d="M615.78,198.08c3.4,6.31,8.3,4.42,4.25-2.46S612.3,191.63,615.78,198.08Z"/><path class="cls-61" d="M575.94,231.92c1,5.33,8.51,7.14,16.32,4,3.84,10.83-13.51,23.79-17.75,18.81C565.15,243.72,575.94,231.92,575.94,231.92Z"/></g></g><g id="cable"><g id="thick"><path class="cls-62" d="M533.44,411.74a8.59,8.59,0,0,0-1.61-3.72,12.67,12.67,0,0,0-1.59-1.78,17.76,17.76,0,0,0-3.94-2.76c-.55-.28-1.12-.55-1.68-.79-.63,1.32-1.24,2.56-1.81,3.7h0c.62.26,1.11.49,1.56.72a11.92,11.92,0,0,1,4.11,3.31,3.59,3.59,0,0,1,.62,3.73h0l0,0a5.32,5.32,0,0,1-2.19,2.11l-.07.05a9.55,9.55,0,0,1-1.11.54h0c-.09.05-.2.08-.29.12a19.54,19.54,0,0,1-5.54,1.18,5.28,5.28,0,0,1-.59,0h-.21c-.69.05-1.41.07-2.13.07a48.77,48.77,0,0,1-9-.91A40,40,0,0,1,498,414q-.6-.28-1.17-.6a29.63,29.63,0,0,1-6.93-5.07h0l.31-.2a25.25,25.25,0,0,1,5.2-2.49,34.87,34.87,0,0,1,5.72-1.36l.14,0c.36,0,.71-.1,1.07-.13.56-1.41,1.08-2.83,1.59-4.25h-.22c-1,.07-2.05.18-3.18.35a38.11,38.11,0,0,0-6.45,1.53A29.31,29.31,0,0,0,488,404.7q-.35.21-.69.45a11,11,0,0,1-1.58-3.86,6.31,6.31,0,0,1,.82-4.57,10.33,10.33,0,0,1,3.87-3.42,23.57,23.57,0,0,1,5.34-2.11,53.86,53.86,0,0,1,11.41-1.62q.58-2.07,1.11-4.14h-.75a59,59,0,0,0-12.85,1.78,27.59,27.59,0,0,0-6.3,2.46,3.92,3.92,0,0,0-.53.32,14,14,0,0,0-4.81,4.55,10.48,10.48,0,0,0-1.38,7.47,15.24,15.24,0,0,0,2.39,5.71l0,0a26.48,26.48,0,0,0-5.18,6.79l-.25.5a39.94,39.94,0,0,0-3.79,12,70.09,70.09,0,0,0-.79,12.87v.41c0,.93.05,1.86.12,2.84l.28,3.13c.15,1.68.32,3.9.33,6.09a37.3,37.3,0,0,1-1.71,11.7,33,33,0,0,1-5.63,10.32,36.9,36.9,0,0,1-2.59,2.95,29.7,29.7,0,0,0-2.73-1.24A34,34,0,0,0,452,474h-.16q.56,2.07,1.11,4.11a28.62,28.62,0,0,1,7.81,1.75c.39.16.74.3,1.05.45a57.92,57.92,0,0,1-6.82,5l-.12.07c-2,1.24-4.16,2.44-6.43,3.58a109.52,109.52,0,0,1-11.3,4.81c-1.78.61-3.16,1-4.47,1.41l-.1,0a36.38,36.38,0,0,1-7.06,1.31c-.45,0-.9.05-1.35.05a8.81,8.81,0,0,1-3.77-.67,2,2,0,0,1-1.12-1.1,2.83,2.83,0,0,1,0-1.79,11.91,11.91,0,0,1,2.87-4.43,26.73,26.73,0,0,1,4.55-3.73l.4-.26c-.6-1.18-1.19-2.38-1.8-3.61l0,0-.86.54a30.63,30.63,0,0,0-5.16,4.28,15.65,15.65,0,0,0-3.82,6c-.05.15-.09.31-.13.48a6.74,6.74,0,0,0,.16,3.87,6.1,6.1,0,0,0,3.12,3.31,11.09,11.09,0,0,0,3.69,1c.61.06,1.24.09,1.9.09s1.06,0,1.58-.05a42.19,42.19,0,0,0,8.61-1.66l.1,0c1.3-.38,2.6-.8,4-1.29a114.14,114.14,0,0,0,11.75-5c2.12-1.07,4.12-2.17,5.95-3.27l.11-.07a60,60,0,0,0,9.2-6.77l.17.15a9.79,9.79,0,0,1,3.13,4.09,7.63,7.63,0,0,1,.15,4.92,14.13,14.13,0,0,1-2.58,4.81,31.93,31.93,0,0,1-6.08,5.75l-.14.1c-.8.6-1.69,1.22-2.73,1.9a98.26,98.26,0,0,1-10.76,5.92c-1.71.84-3.27,1.59-4.76,2.26l0,0c-2.14,1-4.32,1.93-6.51,2.83-3.65,1.53-7.45,2.95-11.61,4.35-3.88,1.32-7.88,2.53-11.89,3.59-14.26,3.83-30.32,6.42-49.09,7.91-14.27,1.12-29.68,1.65-50,1.74l-2.73,0a309.6,309.6,0,0,1-46.92-3.9c-15.59-2.38-30.9-5.58-49.08-9.65q-3.18-.69-6.34-1.41c-5.95-1.32-12.1-2.69-18.17-3.94a224.19,224.19,0,0,0-24.9-4c-2.48-.21-4.54-.3-6.47-.3a44,44,0,0,0-6.36.42,22,22,0,0,0-6.37,1.82,12.42,12.42,0,0,0-5.27,4.46,14.13,14.13,0,0,0-2.12,6.48,26.34,26.34,0,0,0,.28,6.57c.58,3.69,1.65,6.48,3.46,11.28a1.24,1.24,0,0,0,1.16.81,1.26,1.26,0,0,0,.43-.08,1.21,1.21,0,0,0,.69-.64,1.25,1.25,0,0,0,0-1c-1.69-4.56-2.73-7.31-3.27-10.8a24.54,24.54,0,0,1-.22-5.94,11.55,11.55,0,0,1,1.74-5.3,10,10,0,0,1,4.21-3.49,19.83,19.83,0,0,1,5.63-1.56,41.13,41.13,0,0,1,5.62-.35c2,0,4.06.1,6.57.33a219.74,219.74,0,0,1,24.55,4.1c6.53,1.39,13.16,2.91,19.57,4.38l4.86,1.12c18.22,4.13,33.57,7.39,49.26,9.83a311.27,311.27,0,0,0,48.16,4.09h2c20.24,0,35.73-.5,50.23-1.57,19-1.46,35.29-4,49.77-7.87,4-1,8.1-2.26,12.12-3.62s8-2.8,11.87-4.39c2.51-1,4.77-2,6.92-3l0,0c1.45-.66,2.95-1.37,4.6-2.17a107.45,107.45,0,0,0,11.19-6.12c.75-.49,1.42-.95,2-1.39l.12-.09a37,37,0,0,0,7.75-7.11,17.76,17.76,0,0,0,3.29-6.16,11.61,11.61,0,0,0-.23-7.4l-.06-.15a14.06,14.06,0,0,0-4.09-5.49h0c.84-.89,1.61-1.79,2.33-2.7a36.89,36.89,0,0,0,6.29-11.57,40.57,40.57,0,0,0,1.93-13c0-2.23-.16-4.41-.33-6.42l-.27-3.1c-.07-.82-.09-1.7-.12-2.55v-.47a65.7,65.7,0,0,1,.74-12.12,37.22,37.22,0,0,1,2.59-9.11c.31-.73.66-1.44,1-2.12a22.68,22.68,0,0,1,4.17-5.56l.12.14a33.71,33.71,0,0,0,8.08,6c.78.42,1.58.82,2.38,1.17l.45.2a43.64,43.64,0,0,0,9.53,3,52.26,52.26,0,0,0,9.81,1q1.62,0,3.24-.12l.83-.08.24,0a23.1,23.1,0,0,0,5.6-1.35,13.65,13.65,0,0,0,3.22-1.76,8.7,8.7,0,0,0,2.63-3.07A7.06,7.06,0,0,0,533.44,411.74ZM578.3,428.5a27.81,27.81,0,0,0-.66-3.34c-.24-1-.55-2-.94-3.15a44.35,44.35,0,0,0-2.54-6,49,49,0,0,0-7.42-10.71A55.87,55.87,0,0,0,545.3,391a79.74,79.74,0,0,0-8.24-2.61c-1.32-.34-2.69-.67-4.11-1l-1.27-.23L530,391l.11,0,2,.37c1.84.39,3.6.81,5.28,1.28,2.26.62,4.39,1.31,6.43,2.09A51.52,51.52,0,0,1,563.8,408,43.38,43.38,0,0,1,573,423.27a33.21,33.21,0,0,1,1.43,5.75,2,2,0,0,0,1.92,1.68h.26a2,2,0,0,0,1.31-.75A1.93,1.93,0,0,0,578.3,428.5Z"/><path class="cls-63" d="M427.09,484.59l-.4.26a26.73,26.73,0,0,0-4.55,3.73,11.91,11.91,0,0,0-2.87,4.43,2.83,2.83,0,0,0,0,1.79,2,2,0,0,0,1.12,1.1c-.1,0-1.76,0-5.06-3.56,0-.17.08-.33.13-.48a15.65,15.65,0,0,1,3.82-6,30.63,30.63,0,0,1,5.16-4.28l.86-.54,0,0C425.9,482.21,426.49,483.41,427.09,484.59Z"/><path class="cls-63" d="M464.88,477.39a16.26,16.26,0,0,1-3.12,2.94c-.31-.15-.66-.29-1.05-.45a28.62,28.62,0,0,0-7.81-1.75q-.56-2-1.11-4.11H452a34,34,0,0,1,10.2,2.12A29.7,29.7,0,0,1,464.88,477.39Z"/><path class="cls-63" d="M468.89,491.64a7.63,7.63,0,0,0-.15-4.92,9.79,9.79,0,0,0-3.13-4.09l-.17-.15a37.72,37.72,0,0,0,2.87-2.81,14.06,14.06,0,0,1,4.09,5.49c-1.71,4.08-4.15,9.17-6.09,11.29A14.13,14.13,0,0,0,468.89,491.64Z"/><path class="cls-63" d="M503.91,399.9c-.51,1.42-1,2.84-1.59,4.25-.36,0-.71.08-1.07.13l-.14,0a34.87,34.87,0,0,0-5.72,1.36,25.25,25.25,0,0,0-5.2,2.49l-.31.2a9.73,9.73,0,0,1-2.57-3.2q.35-.24.69-.45a29.31,29.31,0,0,1,6.06-2.91,38.11,38.11,0,0,1,6.45-1.53c1.13-.17,2.19-.28,3.18-.35Z"/><path class="cls-63" d="M508.28,385.43q-.52,2.07-1.11,4.14a53.86,53.86,0,0,0-11.41,1.62,23.57,23.57,0,0,0-5.34,2.11,10.33,10.33,0,0,0-3.87,3.42,6.31,6.31,0,0,0-.82,4.57s-2.18-8.37,2.12-11.29a3.92,3.92,0,0,1,.53-.32,27.59,27.59,0,0,1,6.3-2.46,59,59,0,0,1,12.85-1.78h.75Z"/><path class="cls-64" d="M525.74,416.91a9.55,9.55,0,0,0,1.11-.54A4.41,4.41,0,0,1,525.74,416.91Z"/><path class="cls-63" d="M529.13,414.16a3.59,3.59,0,0,0-.62-3.73,11.92,11.92,0,0,0-4.11-3.31c-.45-.23-.94-.46-1.56-.72h0c.57-1.14,1.18-2.38,1.81-3.7.56.24,1.13.51,1.68.79a17.76,17.76,0,0,1,3.94,2.76A9.1,9.1,0,0,1,529.13,414.16Z"/><path class="cls-63" d="M537.42,392.68c-1.68-.47-3.44-.89-5.28-1.28l-2-.37-.11,0,1.65-3.81,1.27.23c1.42.3,2.79.63,4.11,1A7.87,7.87,0,0,1,537.42,392.68Z"/><path class="cls-63" d="M486.66,411a22.68,22.68,0,0,0-4.17,5.56c-.36.68-.71,1.39-1,2.12a6.63,6.63,0,0,1-2.82-3.57l.25-.5a26.48,26.48,0,0,1,5.18-6.79A31,31,0,0,0,486.66,411Z"/></g><path class="cls-65" d="M803.89,512a1.3,1.3,0,0,0-1.18-.72,1.49,1.49,0,0,0-.56.12L788,517.61,776.7,522c-1.82.75-3.72,1.41-5.56,2l-7.43,2.56c-1.72.63-3.52,1.15-5.26,1.65l-7.94,2.31c-1,.33-2.11.58-3.3.86l-5.73,1.35c-1.45.35-2.89.69-4.32,1L727,535.6c-.73.12-1.46.21-2.19.29l-1.21.15-6.83.84c-1.47.13-3,.22-4.42.3l-2.44.15-3.41.22h-8.77c-.6,0-1.07,0-1.53-.06a120.38,120.38,0,0,1-27-3.94,98.7,98.7,0,0,1-24.9-10.38,96.86,96.86,0,0,1-11-7.6,100.81,100.81,0,0,1-9.76-9.11,91.24,91.24,0,0,1-8.37-10.3,74.18,74.18,0,0,1-5.47-9.14c2.73-4.19,2.25-11.53-4.35-20.2-8.58,0-16.69,8.08-18.88,13.33,6.94,9.91,15.08,12.22,20.09,9.7a80.27,80.27,0,0,0,5.11,8.53,94,94,0,0,0,8.67,10.82,98.86,98.86,0,0,0,10.21,9.53,101.84,101.84,0,0,0,37.56,18.73,124.54,124.54,0,0,0,27.94,4c.8,0,1.61.06,2.42.06l2.34,0,2.3,0,3.55,0,3.51-.26,2.46-.18c1.49-.1,3-.21,4.57-.37l7-.93,1.23-.17c.76-.1,1.51-.19,2.27-.33l10.32-2c1.47-.33,2.93-.7,4.38-1.06l2.41-.6,3.38-.85c1.17-.28,2.3-.56,3.4-.92l8-2.42c1.77-.53,3.6-1.08,5.35-1.75l7.42-2.65c1.87-.66,3.81-1.35,5.66-2.15l11.24-4.66,14.12-6.56A1.23,1.23,0,0,0,803.89,512Z"/><path class="cls-66" d="M591,441c-3.71,4.05-13.21,8.05-21.51,5.94C561.81,422.43,584.49,417,591,441Z"/><path class="cls-63" d="M591,441c-3.71,4.05-13.21,8.05-21.51,5.94C575.62,438.54,588.58,439.56,591,441Z"/><path class="cls-63" d="M578.18,455.9a1,1,0,0,1-.95-.7l-3-9.71a1,1,0,1,1,1.9-.6l3,9.71a1,1,0,0,1-.66,1.25A1,1,0,0,1,578.18,455.9Z"/><path class="cls-63" d="M588.38,453.38a1,1,0,0,1-1-.71l-3-9.7a1,1,0,1,1,1.91-.6l3,9.71a1,1,0,0,1-.66,1.25A1,1,0,0,1,588.38,453.38Z"/></g></g></g></g></svg>