<svg width="85" height="71" viewBox="0 0 85 71" fill="#1d1858" xmlns="http://www.w3.org/2000/svg">
<path d="M47.3333 59.1667C47.3333 58.9095 47.4911 58.6918 47.6883 57.3902H5.72095V23.4258H73.1679L73.7099 36.584C76.471 36.584 76.4039 37.0967 78.8889 36.8806V7.88889C78.8889 3.51056 75.3783 0 71 0H7.88889C3.51056 0 0 3.51056 0 7.88889V55.2222C0 57.3145 0.831148 59.3211 2.3106 60.8005C3.79006 62.28 5.79662 63.1111 7.88889 63.1111H47.6883C47.4911 61.8094 47.3333 60.5078 47.3333 59.1667ZM5.72095 5.72095H73.1679V17.9457H5.72095V5.72095ZM66.0694 71L55.2222 59.1667L59.7978 54.5911L66.0694 60.8628L80.23 46.7022L84.8056 52.2639L66.0694 71Z" fill="#1d1858"/>
<rect x="13.5496" y="31.4351" width="20.5954" height="4.87786" fill="#1d1858"/>
<rect x="43.3588" y="31.4351" width="20.5954" height="4.87786" fill="#1d1858"/>
<rect x="34.145" width="14.6336" height="4.33588" fill="#1d1858"/>
</svg>
