<svg width="160" height="160" viewBox="0 0 160 160" fill="none" xmlns="http://www.w3.org/2000/svg">
<path fill-rule="evenodd" clip-rule="evenodd" d="M117.2 29.4C117.667 29.6667 118.2 29.8 118.733 29.8C119.348 29.7966 119.95 29.6196 120.469 29.2893C120.988 28.9591 121.403 28.4891 121.667 27.9333C122.533 26.3333 121.933 24.3333 120.267 23.4667C106.667 16.4667 94.2667 13.3333 80.0667 13.3333C65.7333 13.3333 52.1333 16.8 39.7333 23.5333C38.9616 23.9638 38.3896 24.6798 38.1403 25.5275C37.891 26.3753 37.9842 27.287 38.4 28.0667C39.3333 29.6667 41.3333 30.2667 42.9333 29.4C54.3333 23.1333 66.8667 20 80.0667 20C93.3333 20 104.4 22.8 117.2 29.4ZM21.588 64.3244C22.1147 64.6411 22.7188 64.8057 23.3333 64.8C24.4 64.8 25.4 64.3333 25.9333 63.4C31.9333 55 39.5333 48.3333 48.6 43.6667C67.6667 33.8 92.1333 33.8 111.267 43.6C120.274 48.2104 128.028 54.9358 133.867 63.2C134.933 64.7333 137 65.0667 138.533 64C138.894 63.7474 139.201 63.4258 139.436 63.054C139.672 62.6821 139.831 62.2673 139.906 61.8334C139.98 61.3995 139.968 60.9552 139.87 60.5261C139.771 60.097 139.589 59.6916 139.333 59.3333C132.733 50.0667 124.333 42.8 114.333 37.6667C93.3333 26.8667 66.5333 26.9333 45.6 37.7333C35.6 42.8667 27.2 50.2 20.6 59.5333C20.2416 60.0325 20.0285 60.6213 19.9843 61.2342C19.9401 61.8472 20.0665 62.4604 20.3496 63.0059C20.6327 63.5514 21.0614 64.0077 21.588 64.3244ZM63.7275 145.014C64.1294 145.186 64.5628 145.272 65 145.267C65.8667 145.267 66.7333 144.933 67.4667 144.267C68.7333 142.933 68.7333 140.867 67.4667 139.533C62.3333 134.333 59.4 131.067 55.1333 123.4C51.4202 116.826 49.3189 108.863 48.9816 100.22L46 97.5L49.1713 94.1022C51.0752 79.6748 64.1721 68.4667 80 68.4667C85.4541 68.4667 90.5838 69.7975 95.0431 72.1323L99.7253 67.1158C93.9815 63.746 87.2239 61.8 80 61.8C59.2 61.8 42.2667 77.9333 42.2667 97.7333C42.2667 108.467 44.6667 118.467 49.2667 126.667C53.7333 134.733 56.8667 138.467 62.6667 144.267C62.9643 144.587 63.3257 144.841 63.7275 145.014ZM114.563 83.3259L109.43 88.3539C110.491 91.2998 111.067 94.4546 111.067 97.7333C111.067 99.6 112.533 101.067 114.4 101.067C116.267 101.067 117.733 99.6 117.733 97.7333C117.733 92.6139 116.601 87.7396 114.563 83.3259ZM100.328 97.2708C100.331 97.4246 100.333 97.5787 100.333 97.7333C100.333 104.867 106.533 110.667 114.2 110.667C121.867 110.667 128.067 104.867 128.067 97.7333C128.067 72.6 106.4 52.2 79.7333 52.2C60.8 52.2 43.4667 62.7333 35.6667 79.0667C33.0667 84.4667 31.7333 90.8 31.7333 97.7333C31.7333 102.933 32.2 111.133 36.2 121.8C36.8667 123.533 36 125.467 34.2667 126.067C32.5333 126.733 30.6 125.8 30 124.133C26.7876 115.702 25.1384 106.756 25.1333 97.7333C25.1333 89.7333 26.6667 82.4667 29.6667 76.1333C38.5333 57.5333 58.2 45.4667 79.7333 45.4667C110.067 45.4667 134.733 68.8667 134.733 97.6667C134.733 108.467 125.533 117.267 114.2 117.267C104.831 117.267 96.9195 111.252 94.4588 103.066L95.5 102L100.328 97.2708ZM87.9428 79.7398C85.4458 78.7065 82.6924 78.1333 79.8 78.1333C73.1505 78.1333 67.2353 81.1627 63.4819 85.848L68.2821 90.4636C70.7701 87.0094 74.9973 84.7333 79.8 84.7333C80.8784 84.7333 81.9277 84.8481 82.9348 85.0651L83.5 84.5L87.9428 79.7398ZM74.5896 123.408L74.5 123.5L61.149 111.32C61.6612 113.107 62.2765 114.867 62.9931 116.591C65.4772 122.567 69.1285 127.987 73.7333 132.533C81 139.667 87.9333 143.6 98.5333 146.533C98.8 146.6 99.1333 146.667 99.4 146.667C100.8 146.667 102.2 145.667 102.533 144.133C103 142.4 102 140.533 100.2 140.067C90.8 137.467 84.7333 134 78.4 127.733C77.0216 126.366 75.7502 124.921 74.5896 123.408ZM81.6427 116.187C84.2863 120.387 87.8354 124.087 92.1333 127C97.8667 130.933 104.867 132.933 112.8 132.933C113.733 132.933 117.067 132.867 120.867 132.133C122.733 131.8 123.933 130.067 123.6 128.267C123.267 126.4 121.533 125.2 119.733 125.533C117.067 126 114.4 126.2 112.8 126.2C106.133 126.2 100.6 124.667 95.8667 121.467C91.8625 118.775 88.6662 115.26 86.4529 111.262L81.6427 116.187Z" fill="#1d1858"/>
<path d="M74.8975 102.287L64.3462 91.7361L59.8156 96.2667L74.8975 111.349L106 80.2461L101.469 75.7154L74.8975 102.287Z" fill="#1d1858" stroke="#1d1858" stroke-width="1.65489" stroke-linejoin="round"/>
</svg>
