<svg width="102" height="104" viewBox="0 0 102 104" fill="none" xmlns="http://www.w3.org/2000/svg">
<path d="M46.3018 97.2612L39.6194 90.5788L36.75 93.4482L46.3018 103L66 83.3018L63.1306 80.4324L46.3018 97.2612Z" fill="#1d1858" stroke="#1d1858" stroke-width="1.13845" stroke-linejoin="round"/>
<path d="M32.4623 67.2493H69.5379C87.4375 67.2493 102 81.8118 102 99.7116V102.697H0V99.7116C0 81.8118 14.5625 67.2493 32.4623 67.2493ZM60.1989 73.2209H41.8013H60H60.1989ZM95.8613 96.7259C94.7016 86.4329 82.875 73.6824 70.5 73.2209L95.8613 96.7259ZM6.13873 102.697H95.8613V96.7259L70.5 73.2209C69.6432 73.1368 70.4165 73.2209 69.5379 73.2209H66.1705H49.875H36.75H35.8295H32.4621C31.5835 73.2209 30.7148 73.2647 29.8579 73.3486L17.9983 88.023L6.13873 102.697ZM6.13873 102.697L29.8579 73.3486C10.875 77.0574 6.13873 92.8074 6.13873 102.697Z" fill="#1d1858"/>
<path d="M34.5876 14.3583C35.3681 6.85491 41.7288 0.985329 49.4353 0.985329H52.5653C60.2716 0.985329 66.6323 6.85511 67.413 14.3583C74.2166 19.4985 78.2348 27.5101 78.2348 36.0913C78.2342 51.1082 66.0169 63.3255 51 63.3255C35.9831 63.3255 23.7658 51.1082 23.7658 36.0913C23.7658 27.5103 27.7842 19.4983 34.5876 14.3583ZM52.5649 6.95671H49.4349C45.5422 6.95671 42.2214 9.45272 40.9891 12.9283H61.0105C59.7784 9.45272 56.4576 6.95671 52.5649 6.95671ZM51 57.3539C62.7242 57.3539 72.2626 47.8155 72.2626 36.0913C72.2626 29.267 69.0064 22.9036 63.5123 18.9001L38.4881 18.8999C32.994 22.9034 29.7376 29.2672 29.7376 36.0913C29.7374 47.8155 39.2758 57.3539 51 57.3539Z" fill="#1d1858"/>
</svg>
