<svg width="134" height="134" viewBox="0 0 100 100" fill="none" xmlns="http://www.w3.org/2000/svg">
<path d="M35.7484 32.8327H49.8694C50.1927 32.8327 50.5026 32.7043 50.7312 32.4758C50.9598 32.2472 51.0882 31.9372 51.0882 31.614C51.0882 31.2907 50.9598 30.9807 50.7312 30.7522C50.5026 30.5236 50.1927 30.3952 49.8694 30.3952H35.7484C35.4251 30.3952 35.1151 30.5236 34.8866 30.7522C34.658 30.9807 34.5296 31.2907 34.5296 31.614C34.5296 31.9372 34.658 32.2472 34.8866 32.4758C35.1151 32.7043 35.4251 32.8327 35.7484 32.8327V32.8327Z" fill="#1d1858"/>
<path d="M60.6361 45.2766H64.4802C64.8034 45.2766 65.1134 45.1482 65.342 44.9196C65.5706 44.691 65.699 44.381 65.699 44.0578C65.699 43.7346 65.5706 43.4246 65.342 43.196C65.1134 42.9675 64.8034 42.8391 64.4802 42.8391H60.6361C60.3128 42.8391 60.0028 42.9675 59.7743 43.196C59.5457 43.4246 59.4173 43.7346 59.4173 44.0578C59.4173 44.381 59.5457 44.691 59.7743 44.9196C60.0028 45.1482 60.3128 45.2766 60.6361 45.2766V45.2766Z" fill="#1d1858"/>
<path d="M35.7484 40.25H49.8694C50.1927 40.25 50.5026 40.1216 50.7312 39.8931C50.9598 39.6645 51.0882 39.3545 51.0882 39.0313C51.0882 38.7081 50.9598 38.3981 50.7312 38.1695C50.5026 37.9409 50.1927 37.8125 49.8694 37.8125H35.7484C35.4251 37.8125 35.1151 37.9409 34.8866 38.1695C34.658 38.3981 34.5296 38.7081 34.5296 39.0313C34.5296 39.3545 34.658 39.6645 34.8866 39.8931C35.1151 40.1216 35.4251 40.25 35.7484 40.25V40.25Z" fill="#1d1858"/>
<path d="M60.6361 38.0077H69.7405C70.0638 38.0077 70.3738 37.8793 70.6023 37.6508C70.8309 37.4222 70.9593 37.1122 70.9593 36.789C70.9593 36.4658 70.8309 36.1558 70.6023 35.9272C70.3738 35.6986 70.0638 35.5702 69.7405 35.5702H60.6361C60.3128 35.5702 60.0028 35.6986 59.7743 35.9272C59.5457 36.1558 59.4173 36.4658 59.4173 36.789C59.4173 37.1122 59.5457 37.4222 59.7743 37.6508C60.0028 37.8793 60.3128 38.0077 60.6361 38.0077Z" fill="#1d1858"/>
<path d="M60.6361 30.7399H69.7405C70.0638 30.7399 70.3738 30.6115 70.6023 30.383C70.8309 30.1544 70.9593 29.8444 70.9593 29.5212C70.9593 29.1979 70.8309 28.8879 70.6023 28.6594C70.3738 28.4308 70.0638 28.3024 69.7405 28.3024H60.6361C60.3128 28.3024 60.0028 28.4308 59.7743 28.6594C59.5457 28.8879 59.4173 29.1979 59.4173 29.5212C59.4173 29.8444 59.5457 30.1544 59.7743 30.383C60.0028 30.6115 60.3128 30.7399 60.6361 30.7399Z" fill="#1d1858"/>
<path d="M35.7484 25.4152H49.8694C50.1927 25.4152 50.5026 25.2868 50.7312 25.0582C50.9598 24.8297 51.0882 24.5197 51.0882 24.1965C51.0882 23.8732 50.9598 23.5632 50.7312 23.3347C50.5026 23.1061 50.1927 22.9777 49.8694 22.9777H35.7484C35.4251 22.9777 35.1151 23.1061 34.8866 23.3347C34.658 23.5632 34.5296 23.8732 34.5296 24.1965C34.5296 24.5197 34.658 24.8297 34.8866 25.0582C35.1151 25.2868 35.4251 25.4152 35.7484 25.4152V25.4152Z" fill="#1d1858"/>
<path d="M78.2045 39.9614C77.9839 39.4936 77.6401 39.0948 77.2099 38.8077C76.7798 38.5206 76.2796 38.356 75.763 38.3317V22.1674C75.763 21.8442 75.6346 21.5342 75.406 21.3057C75.1775 21.0771 74.8675 20.9487 74.5442 20.9487H57.3802V15.8602C57.3802 15.537 57.2518 15.227 57.0232 14.9984C56.7947 14.7699 56.4847 14.6415 56.1614 14.6415H53.6187V8.53125C53.6187 8.20802 53.4903 7.89802 53.2617 7.66946C53.0332 7.4409 52.7232 7.3125 52.4 7.3125H44.8401V3.30505C44.8401 2.98181 44.7116 2.67182 44.4831 2.44326C44.2545 2.2147 43.9445 2.0863 43.6213 2.0863C43.2981 2.0863 42.9881 2.2147 42.7595 2.44326C42.531 2.67182 42.4026 2.98181 42.4026 3.30505V7.3125H33.218C32.8948 7.3125 32.5848 7.4409 32.3563 7.66946C32.1277 7.89802 31.9993 8.20802 31.9993 8.53125V14.6415H29.4558C29.1325 14.6415 28.8225 14.7699 28.594 14.9984C28.3654 15.227 28.237 15.537 28.237 15.8602V39.0977C28.2094 39.1046 28.1814 39.1087 28.1539 39.1162C27.7793 39.221 27.43 39.4014 27.1276 39.6461C26.8253 39.8909 26.5761 40.1949 26.3955 40.5395L11.1934 69.6445C10.8485 70.2985 10.7731 71.0615 10.9832 71.7704C11.1934 72.4794 11.6725 73.078 12.3181 73.4384L17.9636 76.6198C18.3876 76.8606 18.8669 76.9875 19.3546 76.988C19.6288 76.9877 19.9015 76.948 20.1644 76.87C20.5299 76.7635 20.8701 76.5841 21.1645 76.3427C21.4588 76.1012 21.7013 75.8026 21.8772 75.465L22.6897 73.9188L25.0865 75.9178L21.5028 80.8921C20.7412 81.9521 20.4311 83.2708 20.6406 84.5591C20.85 85.8474 21.5619 87.0001 22.62 87.7642L22.6285 87.7705C23.4626 88.3749 24.4662 88.7003 25.4963 88.7004C25.7642 88.7003 26.0317 88.6786 26.2962 88.6354C26.4046 88.6178 26.5115 88.5948 26.6177 88.571C26.6281 88.6795 26.6409 88.788 26.6583 88.896C26.7595 89.5325 26.9857 90.1427 27.3239 90.6913C27.6621 91.2399 28.1055 91.7162 28.6286 92.0926L28.637 92.0987L28.6481 92.107C29.4821 92.7113 30.4856 93.0367 31.5155 93.0367C31.7835 93.0367 32.0512 93.015 32.3158 92.9719C32.4242 92.9543 32.5311 92.9313 32.6373 92.9075C32.6477 93.016 32.6603 93.1245 32.6779 93.2325C32.7803 93.872 33.0085 94.4849 33.3494 95.0355C33.6902 95.5862 34.137 96.0637 34.6637 96.4405L34.6706 96.4452C35.5058 97.0477 36.5097 97.3714 37.5395 97.3704C37.9156 97.3702 38.2904 97.3272 38.6567 97.2424C38.6673 97.3515 38.6799 97.4606 38.6973 97.5697C38.7997 98.2091 39.0278 98.822 39.3687 99.3726C39.7095 99.9233 40.1562 100.401 40.6829 100.778L40.69 100.783C41.5233 101.385 42.5255 101.71 43.5541 101.71C43.822 101.71 44.0895 101.689 44.354 101.646C44.9927 101.544 45.6049 101.316 46.155 100.976C46.7052 100.636 47.1824 100.19 47.5591 99.6639L48.8 97.9416L51.0378 99.7291C51.9916 100.55 53.2087 101.001 54.4672 100.999C54.5978 100.999 54.7292 100.995 54.8606 100.985C56.1327 100.893 57.3284 100.343 58.2269 99.438C59.1253 98.5327 59.6658 97.3328 59.7484 96.06C60.3328 96.2762 60.951 96.3866 61.5741 96.3861C61.7048 96.3861 61.8359 96.3813 61.9676 96.3716C63.2396 96.2787 64.4352 95.729 65.334 94.824C66.2327 93.919 66.7741 92.7196 66.8582 91.4469C67.6162 91.7268 68.4282 91.8292 69.2319 91.7463C70.0357 91.6634 70.8097 91.3974 71.4946 90.9687C72.1795 90.54 72.757 89.9601 73.1828 89.2733C73.6085 88.5866 73.8713 87.8115 73.9507 87.0074C74.648 87.3351 75.409 87.5047 76.1794 87.5042C76.3126 87.5042 76.4469 87.4993 76.5814 87.4892C77.2767 87.4383 77.955 87.2503 78.5774 86.9361C79.1997 86.6219 79.7538 86.1877 80.2076 85.6584L80.2746 85.5808C80.7184 85.0671 81.0566 84.471 81.2699 83.8265C81.4832 83.182 81.5675 82.5019 81.5179 81.8248C81.4683 81.1478 81.2858 80.4871 80.9809 79.8806C80.6759 79.2741 80.2545 78.7337 79.7406 78.2901L78.2234 76.9803C79.267 76.3163 80.197 75.4889 80.978 74.5298C81.2099 75.0067 81.5712 75.4088 82.0207 75.6903C82.4701 75.9718 82.9896 76.1213 83.5199 76.1217C83.9114 76.1212 84.2986 76.0402 84.6574 75.8838L90.6047 73.3078C90.9539 73.1565 91.2692 72.9367 91.5319 72.6614C91.7946 72.3861 91.9993 72.0608 92.134 71.7049C92.2687 71.349 92.3306 70.9697 92.316 70.5894C92.3015 70.2091 92.2107 69.8356 92.0491 69.4911L78.2045 39.9614ZM73.3255 23.3864V39.0203L68.4793 40.9297C68.1172 41.0723 67.7883 41.2877 67.5128 41.5626C67.2373 41.8375 67.0212 42.166 66.8778 42.5277C66.7344 42.8895 66.6668 43.2769 66.6791 43.6659C66.6915 44.0548 66.7835 44.4371 66.9496 44.7891L67.7578 46.5028L67.2793 46.706C65 47.1823 63.4156 47.1161 61.0659 46.4547L57.3808 45.4188V23.3862L73.3255 23.3864ZM34.4368 9.75H51.1812V14.6415H34.4368V9.75ZM54.9433 17.079V44.7407C53.3616 44.3561 51.7048 44.413 50.1532 44.905L44.5453 46.6781C43.4082 47.0381 42.3551 47.623 41.4485 48.398C39.7931 47.8884 38.0486 47.735 36.3297 47.9479L37.0425 46.5906C37.3774 45.9501 37.4563 45.2062 37.2634 44.5096C37.0704 43.8131 36.6199 43.2159 36.0031 42.8391L30.6749 39.5964V17.079H54.9433ZM19.7194 74.3314C19.6941 74.3795 19.6594 74.4221 19.6174 74.4565C19.5753 74.491 19.5268 74.5167 19.4747 74.5321C19.4225 74.5475 19.3678 74.5522 19.3138 74.5461C19.2598 74.5399 19.2075 74.523 19.1602 74.4963L13.5149 71.315C13.4226 71.2635 13.3541 71.1779 13.324 71.0765C13.294 70.9752 13.3047 70.8661 13.354 70.7726L28.5561 41.6678C28.5817 41.6185 28.6173 41.575 28.6605 41.5401C28.7037 41.5051 28.7536 41.4795 28.8072 41.4647C28.8432 41.4548 28.8803 41.4497 28.9177 41.4497C28.9917 41.4496 29.0644 41.4702 29.1273 41.5092L34.7358 44.9217C34.8239 44.9754 34.8883 45.0607 34.9159 45.1602C34.9434 45.2597 34.932 45.3659 34.8841 45.4573L19.7194 74.3314ZM27.5222 85.2292C27.3314 85.4941 27.0903 85.7188 26.8127 85.8904C26.535 86.0621 26.2263 86.1774 25.9041 86.2298C25.5819 86.2821 25.2525 86.2705 24.9348 86.1955C24.6171 86.1205 24.3173 85.9837 24.0524 85.7929L24.0439 85.7868C23.5096 85.4009 23.1503 84.8189 23.0446 84.1684C22.9389 83.5178 23.0956 82.852 23.4802 82.3168L29.0822 74.5412C29.2724 74.2756 29.5133 74.0505 29.7911 73.8787C30.0689 73.707 30.378 73.592 30.7005 73.5406C31.1865 73.4623 31.6847 73.5295 32.1325 73.7339C32.5803 73.9383 32.9575 74.2706 33.2167 74.689C33.4759 75.1075 33.6055 75.5933 33.5891 76.0852C33.5726 76.5771 33.411 77.0532 33.1244 77.4534L27.5222 85.2292ZM33.542 89.5659C33.1568 90.0996 32.5759 90.4588 31.9264 90.5651C31.2769 90.6714 30.6117 90.5161 30.0765 90.1331C30.0716 90.1296 30.0662 90.1253 30.0637 90.1239C29.7987 89.9331 29.574 89.6919 29.4022 89.4142C29.2304 89.1365 29.1151 88.8277 29.0627 88.5053C29.0104 88.183 29.022 87.8536 29.097 87.5357C29.172 87.2179 29.3089 86.918 29.4998 86.6531L33.5648 81.0111C33.7561 80.7458 33.9979 80.5208 34.2762 80.3489C34.5545 80.177 34.864 80.0617 35.1869 80.0094C35.5098 79.9571 35.8399 79.9689 36.1582 80.0442C36.4766 80.1195 36.777 80.2567 37.0423 80.4481C37.3076 80.6394 37.5326 80.8812 37.7045 81.1595C37.8764 81.4378 37.9917 81.7473 38.044 82.0702C38.0963 82.3931 38.0845 82.7232 38.0092 83.0415C37.9339 83.3599 37.7967 83.6603 37.6053 83.9256L33.542 89.5659ZM39.5618 93.9031C39.176 94.4374 38.594 94.7969 37.9434 94.9026C37.2929 95.0082 36.627 94.8515 36.0919 94.4667L36.0835 94.4608C35.5486 94.0755 35.1887 93.4934 35.0829 92.8426C34.9772 92.1919 35.1343 91.5258 35.5197 90.9909L38.325 87.0974C38.5152 86.8322 38.756 86.6075 39.0336 86.436C39.3111 86.2645 39.6199 86.1497 39.9421 86.0982C40.0753 86.0765 40.2101 86.0656 40.3451 86.0655C40.8034 86.0657 41.2527 86.1924 41.6436 86.4316C42.0345 86.6707 42.3519 87.0131 42.5608 87.4209C42.7696 87.8288 42.862 88.2864 42.8276 88.7434C42.7932 89.2004 42.6334 89.639 42.3658 90.011L39.5618 93.9031ZM47.1266 96.0956L45.5813 98.2402C45.1958 98.7751 44.6137 99.135 43.963 99.2407C43.3123 99.3464 42.6462 99.1893 42.1113 98.8039L42.1031 98.798C41.5684 98.4125 41.2086 97.8305 41.1028 97.1798C40.9971 96.5292 41.1541 95.8631 41.5393 95.3282L43.0842 93.1834C43.2745 92.918 43.5154 92.6929 43.7931 92.5212C44.0709 92.3494 44.3799 92.2344 44.7023 92.1828C44.8363 92.1611 44.9718 92.1501 45.1076 92.1501C45.6226 92.1492 46.1248 92.3106 46.5428 92.6114L46.5632 92.6258C46.828 92.8166 47.0527 93.0577 47.2244 93.3353C47.3961 93.613 47.5114 93.9217 47.5637 94.2439C47.6161 94.5661 47.6045 94.8955 47.5295 95.2132C47.4546 95.5309 47.3178 95.8307 47.127 96.0956H47.1266ZM79.0869 82.0016C79.1141 82.3594 79.0701 82.7191 78.9573 83.0597C78.8445 83.4004 78.6653 83.7154 78.43 83.9863L78.3632 84.0637C78.1176 84.3506 77.8177 84.5862 77.4807 84.7567C77.1437 84.9272 76.7762 85.0293 76.3996 85.0572C76.0264 85.0857 75.6512 85.0399 75.2958 84.9225C74.9404 84.805 74.6118 84.6182 74.3291 84.3728L72.1624 82.5002C72.1565 82.4954 72.1512 82.4899 72.1455 82.485L66.3851 77.5084C66.2645 77.4006 66.1236 77.3179 65.9707 77.2651C65.8178 77.2124 65.6559 77.1905 65.4944 77.201C65.333 77.2114 65.1752 77.2539 65.0304 77.3259C64.8855 77.3979 64.7564 77.4981 64.6507 77.6205C64.5449 77.743 64.4646 77.8852 64.4144 78.039C64.3642 78.1928 64.3451 78.355 64.3583 78.5163C64.3714 78.6775 64.4166 78.8345 64.491 78.9782C64.5655 79.1218 64.6678 79.2491 64.792 79.3528C64.792 79.3528 67.7241 81.886 70.5638 84.3397C71.127 84.8374 71.4708 85.5375 71.5203 86.2874C71.5698 87.0374 71.321 87.7765 70.8281 88.3439C70.3352 88.9113 69.6381 89.261 68.8886 89.3168C68.1391 89.3727 67.3979 89.1302 66.8263 88.6421L61.0661 83.6656C60.8208 83.4593 60.5042 83.358 60.1848 83.3834C59.8654 83.4089 59.5689 83.5591 59.3594 83.8016C59.1499 84.0441 59.0443 84.3593 59.0656 84.679C59.0868 84.9988 59.2331 85.2973 59.4728 85.5099L63.4455 88.9428C63.7287 89.1875 63.961 89.4855 64.129 89.82C64.2971 90.1545 64.3976 90.5188 64.4249 90.8921C64.4521 91.2654 64.4056 91.6404 64.2879 91.9958C64.1702 92.3511 63.9837 92.6798 63.739 92.963C63.4943 93.2462 63.1962 93.4785 62.8617 93.6466C62.5273 93.8146 62.163 93.9151 61.7897 93.9424C61.4164 93.9696 61.0413 93.9231 60.686 93.8054C60.3307 93.6877 60.002 93.5012 59.7188 93.2565L55.7458 89.8249C55.5488 89.6556 55.303 89.5534 55.044 89.5332C54.785 89.5129 54.5263 89.5756 54.3053 89.7122C54.143 89.8131 54.0067 89.9508 53.9075 90.1141C53.8082 90.2775 53.7488 90.4618 53.7339 90.6524C53.7191 90.8429 53.7493 91.0343 53.822 91.211C53.8948 91.3877 54.008 91.5448 54.1527 91.6697L56.3375 93.5571C56.9095 94.0512 57.2617 94.7522 57.3168 95.506C57.3718 96.2598 57.1252 97.0045 56.6312 97.5765C56.1371 98.1484 55.4361 98.5007 54.6823 98.5557C53.9285 98.6108 53.1837 98.3642 52.6118 97.8701C52.6 97.8597 52.588 97.8498 52.5759 97.8402L49.9149 95.7145C50.1231 94.7763 50.0525 93.7978 49.7118 92.8991C49.3712 92.0005 48.7753 91.2211 47.9974 90.6567L47.9771 90.6421C47.15 90.0432 46.1561 89.7185 45.135 89.7134C45.3078 88.9913 45.3154 88.2394 45.1573 87.5139C44.9993 86.7884 44.6795 86.1079 44.222 85.5231C43.7644 84.9383 43.1808 84.4643 42.5146 84.1364C41.8484 83.8084 41.1169 83.635 40.3743 83.629C40.5444 82.9205 40.5553 82.1831 40.4062 81.4698C40.2572 80.7566 39.952 80.0852 39.5126 79.504C39.0731 78.9228 38.5103 78.4462 37.8646 78.1085C37.219 77.7708 36.5065 77.5804 35.7784 77.5509C36.149 76.4332 36.1072 75.2197 35.6605 74.1301C35.2138 73.0406 34.3918 72.1469 33.3432 71.611C32.2947 71.0751 31.0889 70.9323 29.9442 71.2084C28.7995 71.4846 27.7914 72.1614 27.1026 73.1165L26.5135 73.9351L23.8473 71.7117L34.892 50.6827C36.4506 50.2611 38.0822 50.1829 39.674 50.4536C39.4205 50.8591 39.1996 51.2841 39.0134 51.7246L37.3011 55.9C36.8635 56.966 36.4607 58.0596 36.1026 59.15L34.3927 64.3693C34.2988 64.6559 34.3146 64.9672 34.4369 65.2429C34.5592 65.5186 34.7794 65.7391 35.0549 65.8619L35.4234 66.0262C36.7488 66.6324 38.2066 66.8918 39.6598 66.7801C41.113 66.6683 42.514 66.1891 43.7312 65.3874C44.7826 64.6928 45.6655 63.772 46.3151 62.6922C46.9647 61.6124 47.3647 60.4011 47.4858 59.1467C47.4946 59.0563 47.5023 58.9652 47.5089 58.8733C47.5847 58.5093 48.1603 56.0365 49.8377 55.8898L52.2797 56.5786C53.213 56.8429 54.0642 57.339 54.7542 58.0208L70.0495 73.1423C70.0698 73.1626 70.0901 73.1802 70.1104 73.1983L78.1471 80.1361C78.4192 80.3695 78.6424 80.6545 78.8038 80.9747C78.9651 81.2949 79.0613 81.6439 79.0869 82.0016V82.0016ZM76.2698 75.2925L71.7352 71.3781L56.4688 56.2859C55.4853 55.3147 54.2721 54.6082 52.9421 54.2321L50.3141 53.4911C50.205 53.4596 50.0919 53.4441 49.9783 53.4452C48.3017 53.4521 46.8687 54.3999 45.9432 56.1149C45.5423 56.8668 45.2573 57.6748 45.0976 58.5118L45.0602 58.9136C44.9732 59.8073 44.6874 60.6703 44.2238 61.4393C43.7602 62.2084 43.1305 62.8641 42.3808 63.3583C41.6019 63.8624 40.7202 64.1858 39.8001 64.3049C38.88 64.424 37.945 64.3358 37.0634 64.0467L38.4193 59.9087C38.7581 58.8727 39.1404 57.8358 39.5553 56.8246L41.2642 52.6606C41.6285 51.7961 42.1763 51.0212 42.8697 50.3895C43.5632 49.7578 44.3857 49.2844 45.2802 49.0021L50.8877 47.2284C52.0912 46.8466 53.3803 46.8257 54.5955 47.1685L60.4049 48.8014C63.193 49.5848 65.1552 49.6545 67.9019 49.0655C67.9781 49.0491 68.0526 49.0255 68.1243 48.995L68.7968 48.7082L79.7832 72.0033C78.9282 73.3951 77.7147 74.5313 76.2698 75.2932V75.2925ZM89.8542 70.8411C89.8351 70.892 89.806 70.9385 89.7684 70.9779C89.7309 71.0172 89.6858 71.0485 89.6358 71.07L83.6895 73.6466C83.5929 73.6887 83.4836 73.6915 83.3849 73.6542C83.2863 73.617 83.2061 73.5427 83.1614 73.4472L82.3702 71.7693C82.3307 71.5808 82.2472 71.4043 82.1265 71.2542L69.1541 43.7485C69.1304 43.6982 69.1173 43.6436 69.1155 43.588C69.1137 43.5324 69.1234 43.4771 69.1439 43.4254C69.1644 43.3738 69.1953 43.3268 69.2346 43.2876C69.274 43.2483 69.321 43.2175 69.3727 43.1972L75.4813 40.7905C75.5774 40.7527 75.6843 40.7529 75.7803 40.791C75.8763 40.8292 75.9542 40.9026 75.998 40.9961L89.8422 70.525C89.8655 70.5742 89.8785 70.6277 89.8806 70.6821C89.8826 70.7365 89.8737 70.7908 89.8542 70.8417V70.8411Z" fill="#1d1858"/>
</svg>
