<svg width="113" height="113" viewBox="0 0 113 113" fill="none" xmlns="http://www.w3.org/2000/svg">
<path d="M109.138 7.71049H3.8623C1.73274 7.71049 0 9.44323 0 11.5728V25.167C0 27.3072 3.31055 27.3072 3.31055 25.167V11.5728C3.31055 11.2687 3.55796 11.021 3.8623 11.021H109.138C109.442 11.021 109.689 11.2687 109.689 11.5728V92.2925C109.689 92.5967 109.442 92.8443 109.138 92.8443H87.9255V89.4H104.574C105.488 89.4 106.229 88.6589 106.229 87.7447V70.4109C106.229 68.2708 102.919 68.2708 102.919 70.4109V86.0894H87.9255V78.7451C87.9793 78.7497 88.0336 78.7544 88.0846 78.759C89.4587 78.8797 91.1678 79.03 92.3519 77.8438C93.5346 76.6588 93.385 74.9479 93.2647 73.5732C93.1352 72.0978 93.2747 71.6939 94.4086 70.7512C97.3283 68.3235 97.3826 65.7241 94.4086 63.2518C93.2747 62.3085 93.1358 61.905 93.2647 60.4294C93.5887 56.7267 91.8593 54.912 88.0846 55.2438C86.6114 55.3731 86.2117 55.2332 85.2724 54.099C82.8484 51.1724 80.2472 51.1184 77.7782 54.099C76.8389 55.2329 76.4394 55.3735 74.9662 55.2438C71.2608 54.9182 69.4553 56.6574 69.7859 60.4294C69.9148 61.9052 69.776 62.3085 68.642 63.2518C65.7223 65.6793 65.6682 68.2791 68.642 70.7512C69.776 71.6945 69.9148 72.098 69.7859 73.5736C69.4383 77.5394 71.3324 79.0729 75.1247 78.7453V86.0899H10.0815V17.7757H102.919V61.5828C102.919 63.723 106.229 63.723 106.229 61.5828V16.1204C106.229 15.2062 105.488 14.4651 104.574 14.4651H8.42622C7.51185 14.4651 6.77095 15.2062 6.77095 16.1204V87.7447C6.77095 88.6589 7.51185 89.4 8.42622 89.4H75.1247V92.8443H3.8623C3.55796 92.8443 3.31055 92.5967 3.31055 92.2925V33.5535C3.31055 31.4133 0 31.4133 0 33.5535V92.2925C0 94.4221 1.73274 96.1548 3.8623 96.1548H75.1247V103.648C75.3604 105.008 76.145 105.508 77.4781 105.148L81.5251 103.266L85.5721 105.148C86.5735 105.614 87.9255 104.878 87.9255 103.648V96.1548H109.138C111.267 96.1548 113 94.4221 113 92.2925V11.5728C113 9.44301 111.267 7.71049 109.138 7.71049V7.71049ZM74.676 75.4608C73.019 75.6067 72.9386 75.518 73.0834 73.8618C73.3059 71.32 72.7212 69.8369 70.7581 68.205C69.4149 67.088 69.4151 66.9139 70.7581 65.7969C72.7212 64.165 73.3061 62.6819 73.0834 60.1403C72.9386 58.4839 73.019 58.3961 74.676 58.5411C77.2181 58.7651 78.6992 58.176 80.3273 56.2102C81.4399 54.8675 81.6101 54.8675 82.7226 56.2102C84.3512 58.176 85.8319 58.7642 88.3739 58.5411C90.0312 58.3952 90.1113 58.4839 89.9665 60.1401C89.7441 62.6819 90.3287 64.1648 92.2919 65.7967C93.6348 66.9137 93.6355 67.0882 92.2916 68.205C90.3285 69.8371 89.7436 71.3196 89.9663 73.8614C90.1118 75.5175 90.031 75.6065 88.3742 75.4608C87.3344 75.3695 86.155 75.2657 85.1168 75.697C84.1119 76.1143 83.4055 76.9669 82.7224 77.7917C82.4006 78.1801 81.8133 78.8892 81.5246 79.0161C81.2362 78.8892 80.6489 78.1801 80.3271 77.7917C79.644 76.9671 78.9378 76.1143 77.9327 75.697C76.8614 75.3703 75.7758 75.2915 74.676 75.4608ZM82.2232 99.9399C81.7804 99.734 81.2697 99.734 80.827 99.9399L78.4352 101.052V80.6707C79.2207 81.5344 80.1898 82.3362 81.5251 82.3362C82.8603 82.3362 83.8294 81.5346 84.6149 80.671V101.052L82.2232 99.9399Z" fill="#1d1858"/>
<path d="M21.4662 31.6314H78.5284C80.6685 31.6314 80.6685 28.3209 78.5284 28.3209H21.4662C19.3259 28.3209 19.3259 31.6314 21.4662 31.6314V31.6314Z" fill="#1d1858"/>
<path d="M93.189 40.0442C93.189 39.13 92.4481 38.3889 91.5338 38.3889H21.4662C19.3261 38.3889 19.3261 41.6994 21.4662 41.6994H91.534C92.4481 41.6994 93.189 40.9583 93.189 40.0442V40.0442Z" fill="#1d1858"/>
<path d="M62.9306 50.112C62.9306 49.1978 62.1897 48.4567 61.2754 48.4567H21.4662C19.3261 48.4567 19.3261 51.7672 21.4662 51.7672H61.2754C62.1895 51.7672 62.9306 51.0261 62.9306 50.112Z" fill="#1d1858"/>
<path d="M41.1945 73.1847C40.292 73.1863 39.3893 73.1874 38.4869 73.188C36.7506 73.1894 35.7947 72.7265 35.4401 70.8854C35.1163 69.2048 32.6921 69.4189 32.2478 70.8854C32.0512 71.535 31.058 73.3944 30.1904 73.2423C29.7307 73.1618 29.5299 72.4526 29.3599 72.0854C29.0291 71.3705 28.7881 70.6129 28.5817 69.8536C27.7104 66.6459 27.5365 63.2968 26.9913 60.0286C26.6753 58.1334 23.7865 58.6693 23.7399 60.4687C23.5916 66.2006 22.6545 71.8539 20.6139 77.2265C19.8567 79.2201 23.0558 80.0821 23.8061 78.1066C24.593 76.0351 25.2175 73.9139 25.7022 71.7612C25.9622 72.5456 26.2723 73.3149 26.6508 74.0633C27.6175 75.9737 29.589 77.104 31.6985 76.2543C32.4513 75.951 33.1381 75.4209 33.7228 74.7758C35.2889 76.5818 37.6189 76.4999 39.7926 76.4972C43.0693 76.4931 46.3461 76.4853 49.6231 76.4763C51.7531 76.4703 51.7571 73.1598 49.6231 73.1657C46.8136 73.1737 44.004 73.1801 41.1945 73.1847V73.1847Z" fill="#1d1858"/>
<path d="M81.5251 73.4663C85.0901 73.4663 87.9906 70.5661 87.9906 67.0011C87.9906 63.436 85.0901 60.5358 81.5251 60.5358C77.9603 60.5358 75.0598 63.4363 75.0598 67.0011C75.0598 70.5659 77.9601 73.4663 81.5251 73.4663ZM81.5251 63.8463C83.2647 63.8463 84.68 65.2617 84.68 67.0011C84.68 68.7404 83.2647 70.1558 81.5251 70.1558C79.7855 70.1558 78.3704 68.7406 78.3704 67.0011C78.3704 65.2615 79.7855 63.8463 81.5251 63.8463Z" fill="#1d1858"/>
<circle cx="56" cy="53" r="21" fill="white"/>
<path d="M51.6186 57.4227L46.2886 52.0928L44 54.3814L51.6186 62L67.3299 46.2886L65.0413 44L51.6186 57.4227Z" fill="#1d1858" stroke="#1d1858" stroke-width="0.90803" stroke-linejoin="round"/>
</svg>
