<svg width="109" height="109" viewBox="0 0 109 109" fill="none" xmlns="http://www.w3.org/2000/svg">
<path d="M96.5084 41.4517H68.977C68.0952 41.4517 67.3805 42.1666 67.3805 43.0482C67.3805 43.9298 68.0954 44.6447 68.977 44.6447H96.5086C97.3904 44.6447 98.1051 43.9298 98.1051 43.0482C98.1051 42.1666 97.3902 41.4517 96.5084 41.4517V41.4517Z" fill="#1d1858"/>
<path d="M96.5084 51.0771H68.977C68.0952 51.0771 67.3805 51.792 67.3805 52.6736C67.3805 53.5552 68.0954 54.2701 68.977 54.2701H96.5086C97.3904 54.2701 98.1051 53.5552 98.1051 52.6736C98.1051 51.792 97.3902 51.0771 96.5084 51.0771V51.0771Z" fill="#1d1858"/>
<path d="M98.1051 62.299C98.1051 61.4172 97.3902 60.7026 96.5086 60.7026H68.977C68.0952 60.7026 67.3805 61.4175 67.3805 62.299C67.3805 63.1806 68.0954 63.8955 68.977 63.8955H96.5086C97.3902 63.8957 98.1051 63.1808 98.1051 62.299V62.299Z" fill="#1d1858"/>
<path d="M68.977 70.328C68.0952 70.328 67.3805 71.0429 67.3805 71.9245C67.3805 72.806 68.0954 73.5209 68.977 73.5209H82.7427C83.6245 73.5209 84.3392 72.806 84.3392 71.9245C84.3392 71.0429 83.6243 70.328 82.7427 70.328H68.977Z" fill="#1d1858"/>
<path d="M106.151 18.775L89.6904 2.31412C88.2278 0.850498 86.2239 0 84.1042 0H29.9365C25.5807 0 22.0372 3.54378 22.0372 7.89952V24.2455C22.0372 25.1273 22.7521 25.8419 23.6336 25.8419C24.5152 25.8419 25.2301 25.1271 25.2301 24.2455V7.89952C25.2301 5.30438 27.3413 3.19315 29.9365 3.19315H84.1042C84.4486 3.19315 84.7873 3.22998 85.1184 3.303V17.8426C85.1184 20.8775 87.5875 23.3467 90.6224 23.3467H105.16C105.234 23.6798 105.272 24.0211 105.272 24.3609V101.101C105.272 103.696 103.16 105.807 100.565 105.807H79.117C80.9838 103.016 80.6866 99.1957 78.2239 96.733L63.708 82.2171C62.6507 81.1599 61.1118 80.8759 59.7916 81.3574L56.6664 78.2322C65.4835 65.9884 64.1833 49.0479 53.4004 38.2647C41.4332 26.2977 21.7983 26.0593 9.59307 38.2647C-2.48464 50.3425 -2.48464 69.9944 9.59307 82.0721C20.3666 92.8459 37.3234 94.1264 49.5595 85.337L52.6858 88.4633C52.2042 89.7834 52.4882 91.3224 53.5456 92.3796L66.9731 105.807H29.9365C27.3416 105.807 25.2301 103.696 25.2301 101.101V95.9839C25.2301 95.1021 24.5152 94.3874 23.6336 94.3874C22.7521 94.3874 22.0372 95.1023 22.0372 95.9839V101.101C22.0372 105.456 25.5809 109 29.9365 109H100.565C104.921 109 108.465 105.456 108.465 101.101V24.3609C108.465 22.289 107.643 20.2655 106.151 18.775V18.775ZM11.8512 79.8142C1.01848 68.9815 1.01848 51.3554 11.8512 40.5225C22.8219 29.5518 40.4296 29.8094 51.1429 40.5225C61.1177 50.4974 62.047 66.3461 53.3042 77.3879C51.9621 79.0827 50.4134 80.6321 48.7166 81.9754C37.7453 90.662 21.8577 89.8207 11.8512 79.8142V79.8142ZM52.0739 83.3235C52.9768 82.5198 53.8379 81.6604 54.6578 80.7392L57.287 83.3684L54.6967 85.9586L52.0677 83.3294C52.0699 83.3273 52.0718 83.3252 52.0739 83.3235V83.3235ZM70.3193 104.637L55.8035 90.1217C55.5955 89.9137 55.5951 89.5759 55.8035 89.3672L55.8246 89.3462C55.825 89.3457 55.8255 89.3455 55.8257 89.3451L60.696 84.4748C60.9038 84.2668 61.2425 84.2668 61.4505 84.4748L75.9662 98.9907C77.5229 100.548 77.5229 103.081 75.9662 104.637C74.4055 106.198 71.88 106.198 70.3193 104.637V104.637ZM88.3115 17.8426V5.45085L103.014 20.1535H90.6227C89.3481 20.1535 88.3115 19.1167 88.3115 17.8426V17.8426Z" fill="#1d1858"/>
<path d="M67.1397 10.3599H35.4644C33.5709 10.3599 32.0305 11.9004 32.0305 13.7938V19.9129C32.0305 21.8064 33.5709 23.3469 35.4644 23.3469H67.1397C69.0332 23.3469 70.5737 21.8064 70.5737 19.9129V13.7938C70.5735 11.9004 69.033 10.3599 67.1397 10.3599ZM67.3803 19.9127C67.3803 20.0454 67.2724 20.1535 67.1395 20.1535H35.4644C35.3318 20.1535 35.2236 20.0456 35.2236 19.9127V13.7938C35.2236 13.6612 35.3315 13.553 35.4644 13.553H67.1397C67.2726 13.553 67.3805 13.661 67.3805 13.7938V19.9127H67.3803Z" fill="#1d1858"/>
<path d="M48.8984 77.5699C58.4938 67.9747 58.4938 52.3619 48.8984 42.7667C39.303 33.1713 23.6907 33.1713 14.0953 42.7667C10.362 46.5002 7.96786 51.224 7.17165 56.4279C7.03838 57.2995 7.6366 58.1142 8.50839 58.2475C9.38039 58.3814 10.1947 57.7826 10.328 56.9108C11.0207 52.3839 13.1041 48.2736 16.353 45.0244C24.7032 36.6742 38.2901 36.6742 46.6405 45.0244C54.6524 53.0364 54.9756 65.8686 47.6128 74.2711C46.9115 72.8441 45.7187 71.6822 44.1586 70.9954C42.2673 70.1628 39.0067 69.6335 37.001 69.3691L36.9925 67.3531C38.9307 65.926 40.3064 63.7725 40.7017 61.2808C41.0425 61.1392 41.3553 60.9299 41.6231 60.6602C42.1577 60.122 42.4491 59.4082 42.4442 58.6501C42.43 56.5342 42.4319 53.0272 42.4319 50.9843C42.4319 49.0523 41.0242 47.4427 39.1808 47.127C38.827 45.3306 37.2399 43.9715 35.3411 43.9715H27.6338C23.6607 43.9715 20.4281 47.2038 20.4281 51.177V58.6799C20.4281 59.8446 21.139 60.8465 22.1496 61.2746C22.536 63.6903 23.8433 65.7894 25.6893 67.2168L25.6987 69.4166C23.6954 69.6978 20.4394 70.2545 18.5547 71.1031C17.1215 71.7488 16.0015 72.8437 15.3122 74.192C12.7596 71.2536 11.0695 67.7114 10.3993 63.8593C10.2481 62.9907 9.42126 62.4089 8.55267 62.56C7.68386 62.7112 7.10225 63.5381 7.2534 64.4066C8.12455 69.4126 10.4904 73.9642 14.0955 77.5695C23.7328 87.2074 39.3456 87.1231 48.8984 77.5699V77.5699ZM27.6338 47.1649H35.3411C35.7384 47.1649 36.0615 47.488 36.0615 47.8853C36.0615 49.1971 37.1288 50.2643 38.4406 50.2643H38.5187C38.916 50.2643 39.2391 50.5875 39.2391 50.9847V51.8416L37.3093 51.6607C35.4188 51.4838 33.4854 51.9321 31.8657 52.924C30.9773 53.4679 29.9571 53.7555 28.9154 53.7555H23.6215V51.1776C23.6213 48.9648 25.4213 47.1649 27.6338 47.1649V47.1649ZM23.6213 58.3391V56.9482H28.9152C30.546 56.9482 32.1427 56.498 33.5333 55.6464C34.5679 55.0126 35.8031 54.7261 37.0108 54.8393L39.2398 55.0484C39.2411 56.0317 39.2436 57.3291 39.2492 58.3331C38.3603 58.4891 37.6687 59.2383 37.6144 60.1665C37.4243 63.431 34.7078 65.988 31.4301 65.988C28.1593 65.988 25.4387 63.4331 25.2363 60.1712C25.1792 59.2519 24.4982 58.5074 23.6213 58.3391V58.3391ZM31.4301 69.1811C32.2499 69.1811 33.0459 69.0734 33.806 68.8748L33.8098 69.7651C33.8115 70.1781 33.9062 70.5722 34.074 70.9264C33.2801 71.4621 32.3398 71.7575 31.3539 71.7605C31.349 71.7605 31.3441 71.7605 31.3392 71.7605C30.3625 71.7605 29.4292 71.4729 28.638 70.9486C28.8028 70.5928 28.8952 70.1985 28.8935 69.7855L28.8895 68.8309C29.6989 69.0589 30.5513 69.1811 31.4301 69.1811V69.1811ZM17.8121 76.6415C18.044 75.4733 18.7897 74.4998 19.8657 74.0148C20.9518 73.5258 23.0439 73.0347 25.6787 72.6455C27.1838 74.1228 29.1992 74.9535 31.3386 74.9535H31.3628C33.5181 74.9471 35.5444 74.0985 37.0479 72.5976C39.686 72.9646 41.7821 73.4379 42.8723 73.918C44.0941 74.4557 44.8839 75.4802 45.0775 76.7285C37.1765 83.2179 25.6812 83.1883 17.8121 76.6415V76.6415Z" fill="#1d1858"/>
</svg>
