<svg width="115" height="115" viewBox="0 0 115 115" fill="none" xmlns="http://www.w3.org/2000/svg">
<g clip-path="url(#clip0)">
<path d="M111.675 38.1858C109.543 32.2058 106.445 26.6468 102.468 21.6629C101.888 20.9358 100.828 20.8163 100.101 21.3967C99.3735 21.9771 99.2544 23.0371 99.8346 23.7641C107.201 32.9958 111.25 44.0454 111.603 55.8154H89.2654C89.1057 45.7094 87.5121 35.9521 84.6243 27.3999C89.1883 24.9537 93.4227 21.8884 97.1696 18.314C97.854 17.661 97.8538 16.5288 97.1694 15.8761C86.4304 5.63837 72.3422 0 57.5 0C34.2067 0 12.6693 14.5956 4.05959 36.2594C1.37978 43.0026 0 50.2442 0 57.5C0 84.014 18.9067 107.73 44.7752 113.584C44.9041 114.387 45.5977 115 46.4364 115H68.5636C69.4018 115 70.0952 114.387 70.2246 113.585C96.0937 107.731 115 84.0138 115 57.5C115 50.8716 113.881 44.3734 111.675 38.1858ZM55.4374 42.4878C53.0981 41.6614 51.5103 39.326 51.5103 36.8615V36.2358C55.5302 36.5835 59.8256 36.2526 63.4899 34.4526V36.8618C63.4897 40.9593 59.274 43.8786 55.4374 42.4878ZM44.4843 4.94388C43.4859 5.18893 41.7985 7.38493 41.028 8.22295C39.7049 9.66225 38.5021 11.2105 37.4026 12.8268C34.9989 16.3608 33.0859 20.2198 31.5347 24.1972C27.9266 22.2217 24.5554 19.8411 21.4774 17.0952C28.1135 11.1716 35.9959 7.03611 44.4843 4.94388V4.94388ZM55.8154 3.4664V25.8301H53.672C51.0791 25.8301 48.8981 27.6249 48.3027 30.0379C43.5414 29.2235 38.9306 27.7777 34.5553 25.7268C39.6081 12.5691 47.4052 4.42997 55.8154 3.4664V3.4664ZM62.9369 30.911C59.6172 32.9718 55.3148 33.2238 51.5103 32.8493C51.5216 32.3534 51.527 31.8597 51.5103 31.3636C51.5103 30.1702 52.48 29.1992 53.672 29.1992H61.3282C62.2624 29.1992 63.0598 29.7956 63.3612 30.6282C63.2213 30.725 63.08 30.8193 62.9369 30.911V30.911ZM66.6973 30.0379C66.1021 27.6249 63.9211 25.8301 61.328 25.8301H59.1846V3.4664C67.5948 4.42997 75.3919 12.5694 80.4447 25.7268C76.07 27.7772 71.4592 29.223 66.6973 30.0379V30.0379ZM66.1609 46.2206H68.5636C70.0146 46.2206 71.3784 46.7852 72.4035 47.8104C73.4286 48.8352 73.9933 50.1991 73.9933 51.65V73.1124H70.2859V59.0723C70.2859 58.1417 69.5316 57.3877 68.6013 57.3877C67.671 57.3877 66.9167 58.1417 66.9167 59.0723V73.1124H59.1868V58.6453L66.1609 46.2206ZM73.9931 79.1128C73.9931 80.1453 73.1542 80.9854 72.1232 80.9854C71.0893 80.9854 70.2482 80.1453 70.2482 79.1128V76.4815H73.9931V79.1128ZM52.7037 46.2201H62.2972L57.5018 54.7622L52.7037 46.2201ZM48.8395 46.2206L55.8177 58.6439V73.1124H48.121V59.0723C48.121 58.1417 47.3667 57.3877 46.4364 57.3877C45.5061 57.3877 44.7518 58.1417 44.7518 59.0723V73.1124H41.0069V51.65C41.0069 48.6562 43.4426 46.2206 46.4364 46.2206H48.8395ZM41.0069 76.4815H44.7518V79.1128C44.7518 80.1453 43.9107 80.9854 42.8768 80.9854C41.8459 80.9854 41.0069 80.1453 41.0069 79.1128V76.4815ZM44.7518 85.6927V105.781C40.7527 101.89 37.2171 96.1804 34.5566 89.2717C37.828 87.7392 41.2441 86.5397 44.7518 85.6927V85.6927ZM37.6378 79.1128C37.6378 80.9582 38.5966 82.5826 40.0413 83.517C37.7845 84.2355 35.5709 85.0899 33.4172 86.0842C30.7376 77.9799 29.2583 68.7527 29.1026 59.1846H37.638V79.1128H37.6378ZM31.5349 90.8042C34.8329 99.2688 39.281 105.874 44.5003 110.059C35.7587 107.904 27.9243 103.643 21.4958 97.8908C24.5691 95.1513 27.9338 92.776 31.5349 90.8042ZM48.121 76.4815H55.8177V111.631H48.121V76.4815ZM59.1868 76.4815H66.879V91.1353C66.879 92.0658 67.6332 92.8198 68.5636 92.8198C69.4939 92.8198 70.2482 92.0658 70.2482 91.1353V85.6927C73.7554 86.5397 77.1717 87.7389 80.4434 89.2719C77.7834 96.1795 74.2471 101.891 70.2482 105.782V98.9106C70.2482 97.98 69.4939 97.226 68.5636 97.226C67.6332 97.226 66.879 97.98 66.879 98.9106V111.631H59.1868V76.4815ZM83.4639 90.8073C86.093 92.2475 88.6136 93.9085 90.9735 95.7672C91.8369 96.4473 92.6817 97.1602 93.5033 97.8924C87.0745 103.644 79.2397 107.906 70.4977 110.06C75.7169 105.876 80.166 99.2704 83.4639 90.8073ZM81.5828 86.0842C79.4291 85.0899 77.2155 84.2355 74.9587 83.517C76.4034 82.5828 77.3622 80.9582 77.3622 79.1128V59.1846H85.8976C85.7419 68.7527 84.2624 77.9799 81.5828 86.0842ZM77.3622 55.8154V51.65C77.3622 49.2991 76.4472 47.0891 74.7857 45.4281C73.1243 43.7667 70.9146 42.8514 68.5634 42.8514L64.6853 42.851C66.0412 41.2268 66.8588 39.1382 66.8588 36.8615V33.427C71.9572 32.5926 76.8964 31.0808 81.5828 28.916C84.2624 37.0203 85.7417 46.2473 85.8974 55.8154H77.3622ZM93.5175 17.095C90.4468 19.8335 87.0714 22.2168 83.4628 24.1933C80.1301 15.6497 75.6305 9.06276 70.4759 4.93489C78.9787 7.02376 86.8722 11.1635 93.5175 17.095ZM19.0098 19.4045C22.4681 22.5223 26.2793 25.203 30.3728 27.3963C28.1094 34.0903 26.6521 41.438 26.0381 49.262C25.9653 50.1896 26.6582 51.0005 27.5856 51.073C27.6305 51.0768 27.675 51.0782 27.7193 51.0782C28.5896 51.0782 29.3275 50.4082 29.3969 49.5255C29.9757 42.1506 31.3265 35.2277 33.4165 28.9155C38.1039 31.0805 43.043 32.5924 48.141 33.4268V36.8613C48.141 39.0993 48.9338 41.2039 50.3046 42.8508L46.4364 42.8512C41.5849 42.8512 37.6378 46.7983 37.6378 51.6498V55.8154H3.39812C3.83004 41.701 9.66831 28.8526 19.0098 19.4045V19.4045ZM3.39856 59.1846H25.7344C25.8941 69.2913 27.4879 79.0493 30.3762 87.6019C26.2968 89.7874 22.4978 92.4569 19.0489 95.5605C9.6728 86.0616 3.83408 73.1759 3.39856 59.1846ZM95.9516 95.5612C95.0145 94.718 94.0471 93.8995 93.0581 93.1206C90.4147 91.0387 87.5833 89.1861 84.6245 87.6001C87.5123 79.0477 89.1059 69.2906 89.2656 59.1846H111.601C111.166 73.1762 105.327 86.062 95.9516 95.5612V95.5612Z" fill="#1d1858"/>
<circle cx="58" cy="68" r="21" fill="white"/>
<path d="M53.6186 74.4227L48.2886 69.0928L46 71.3814L53.6186 79L69.3299 63.2886L67.0413 61L53.6186 74.4227Z" fill="#1d1858" stroke="#1d1858" stroke-width="0.90803" stroke-linejoin="round"/>
</g>
<defs>
<clipPath id="clip0">
<rect width="115" height="115" fill="white"/>
</clipPath>
</defs>
</svg>
