<svg width="129" height="129" viewBox="0 0 129 129" fill="none" xmlns="http://www.w3.org/2000/svg">
<g clip-path="url(#clip0)">
<path d="M124.7 59.125V27.4749L94.6 17.4408V59.125H90.3V11.825H38.7V59.125H34.4V33.325H30.1V18.275H21.5V5.375H17.2V18.275H8.6V33.325H4.3V59.125H0V119.325H38.7V123.625H90.3V119.325H129V59.125H124.7ZM12.9 22.575H25.8V33.325H12.9V22.575ZM8.6 37.625H30.1V59.125H8.6V37.625ZM38.7 115.025H4.3V63.425H38.7V115.025ZM68.8 119.325H60.2V97.825H68.8V119.325ZM86 119.325H73.1V93.525H55.9V119.325H43V16.125H86V119.325ZM98.9 23.4092L120.4 30.5752V59.125H116.1V33.325H111.8V59.125H107.5V33.325H103.2V59.125H98.9V23.4092ZM111.8 115.025H103.2V106.425H111.8V115.025ZM124.7 115.025H116.1V102.125H98.9V115.025H90.3V63.425H124.7V115.025Z" fill="#1d1858"/>
<path d="M34.4 67.725H8.59998V72.025H34.4V67.725Z" fill="#1d1858"/>
<path d="M34.4 76.325H8.59998V80.625H34.4V76.325Z" fill="#1d1858"/>
<path d="M34.4 84.925H8.59998V89.225H34.4V84.925Z" fill="#1d1858"/>
<path d="M34.4 93.525H8.59998V97.825H34.4V93.525Z" fill="#1d1858"/>
<path d="M49.45 24.725V37.625H62.35V24.725H49.45ZM58.05 33.325H53.75V29.025H58.05V33.325Z" fill="#1d1858"/>
<path d="M66.65 24.725V37.625H79.55V24.725H66.65ZM75.25 33.325H70.95V29.025H75.25V33.325Z" fill="#1d1858"/>
<path d="M49.45 41.925V54.825H62.35V41.925H49.45ZM58.05 50.525H53.75V46.225H58.05V50.525Z" fill="#1d1858"/>
<path d="M66.65 41.925V54.825H79.55V41.925H66.65ZM75.25 50.525H70.95V46.225H75.25V50.525Z" fill="#1d1858"/>
<path d="M49.45 59.125V72.025H62.35V59.125H49.45ZM58.05 67.725H53.75V63.425H58.05V67.725Z" fill="#1d1858"/>
<path d="M66.65 59.125V72.025H79.55V59.125H66.65ZM75.25 67.725H70.95V63.425H75.25V67.725Z" fill="#1d1858"/>
<path d="M49.45 76.325V89.225H62.35V76.325H49.45ZM58.05 84.925H53.75V80.625H58.05V84.925Z" fill="#1d1858"/>
<path d="M66.65 76.325V89.225H79.55V76.325H66.65ZM75.25 84.925H70.95V80.625H75.25V84.925Z" fill="#1d1858"/>
<path d="M98.9 67.725H94.6V72.025H98.9V67.725Z" fill="#1d1858"/>
<path d="M111.8 67.725H103.2V72.025H111.8V67.725Z" fill="#1d1858"/>
<path d="M120.4 67.725H116.1V72.025H120.4V67.725Z" fill="#1d1858"/>
<path d="M98.9 76.325H94.6V80.625H98.9V76.325Z" fill="#1d1858"/>
<path d="M111.8 76.325H103.2V80.625H111.8V76.325Z" fill="#1d1858"/>
<path d="M120.4 76.325H116.1V80.625H120.4V76.325Z" fill="#1d1858"/>
<path d="M98.9 84.925H94.6V89.225H98.9V84.925Z" fill="#1d1858"/>
<path d="M111.8 84.925H103.2V89.225H111.8V84.925Z" fill="#1d1858"/>
<path d="M120.4 84.925H116.1V89.225H120.4V84.925Z" fill="#1d1858"/>
<path d="M98.9 93.525H94.6V97.825H98.9V93.525Z" fill="#1d1858"/>
<path d="M111.8 93.525H103.2V97.825H111.8V93.525Z" fill="#1d1858"/>
<path d="M120.4 93.525H116.1V97.825H120.4V93.525Z" fill="#1d1858"/>
<circle cx="63.5" cy="71.5" r="29.5" fill="white"/>
<path d="M55.7357 79.4384L46.8259 70.5285L43 74.3544L55.7357 87.0901L82 60.8259L78.1741 57L55.7357 79.4384Z" fill="#1d1858" stroke="#1d1858" stroke-width="1.51793" stroke-linejoin="round"/>
</g>
<defs>
<clipPath id="clip0">
<rect width="129" height="129" fill="white"/>
</clipPath>
</defs>
</svg>
