<svg width="120" height="119" viewBox="0 0 120 119" fill="none" xmlns="http://www.w3.org/2000/svg">
<path d="M90 32.593C90 32.8396 89.9909 33.0887 89.9731 33.3337L93.713 33.6038C93.7376 33.2693 93.75 32.9298 93.75 32.593V29.75H90V32.593Z" fill="#1d1858"/>
<path d="M90 19.4697V26.0312H93.75V19.4697C93.7493 16.9829 93.0783 14.5415 91.8066 12.3982C90.5348 10.2548 88.7085 8.48754 86.5167 7.27922L79.6605 3.5019L77.8394 6.75278L84.6956 10.5301C86.3029 11.4162 87.6422 12.7122 88.5748 14.2839C89.5074 15.8557 89.9995 17.6461 90 19.4697V19.4697Z" fill="#1d1858"/>
<path d="M52.125 38.2817L56.25 40.5541V76.2344C56.25 76.5555 56.3338 76.8711 56.4934 77.1505C56.6529 77.4299 56.8827 77.6636 57.1603 77.8288L66.5353 83.4069C66.8267 83.5803 67.1602 83.6719 67.5 83.6719C67.8398 83.6719 68.1733 83.5803 68.4647 83.4069L77.8397 77.8288C78.1173 77.6636 78.3471 77.4299 78.5066 77.1505C78.6662 76.8711 78.75 76.5555 78.75 76.2344V70.6563C78.75 70.4121 78.7015 70.1703 78.6073 69.9447C78.5131 69.7191 78.375 69.5141 78.2009 69.3414L75.7765 66.9375L78.2009 64.5336C78.375 64.3609 78.5131 64.1559 78.6073 63.9303C78.7016 63.7047 78.7501 63.4629 78.7501 63.2188C78.7501 62.9746 78.7016 62.7328 78.6073 62.5072C78.5131 62.2816 78.375 62.0766 78.2009 61.9039L75.7765 59.5L78.2009 57.0961C78.375 56.9234 78.5131 56.7184 78.6073 56.4928C78.7016 56.2672 78.7501 56.0254 78.7501 55.7812C78.7501 55.5371 78.7016 55.2953 78.6073 55.0697C78.5131 54.8441 78.375 54.6391 78.2009 54.4664L75.7765 52.0625L78.2009 49.6586C78.375 49.4859 78.5131 49.2809 78.6073 49.0553C78.7015 48.8297 78.75 48.5879 78.75 48.3437V40.5539L82.875 38.2817C83.8977 37.7178 84.7499 36.8931 85.3433 35.8929C85.9366 34.8927 86.2497 33.7534 86.25 32.593V19.4697C86.2497 18.3093 85.9367 17.17 85.3433 16.1697C84.7499 15.1695 83.8977 14.3447 82.875 13.7808L70.6875 7.06562C69.7137 6.52476 68.6162 6.24074 67.5 6.24074C66.3838 6.24074 65.2863 6.52476 64.3125 7.06562L52.125 13.7801C51.1022 14.3441 50.2499 15.169 49.6565 16.1693C49.0632 17.1697 48.7502 18.3092 48.75 19.4697V32.593C48.7503 33.7534 49.0634 34.8927 49.6567 35.8929C50.2501 36.8931 51.1023 37.7178 52.125 38.2817V38.2817ZM75 47.5737L71.7991 50.7477C71.625 50.9203 71.4869 51.1253 71.3927 51.3509C71.2984 51.5765 71.2499 51.8183 71.2499 52.0625C71.2499 52.3067 71.2984 52.5485 71.3927 52.7741C71.4869 52.9997 71.625 53.2046 71.7991 53.3773L74.2235 55.7812L71.7991 58.1852C71.625 58.3578 71.4869 58.5628 71.3927 58.7884C71.2984 59.014 71.2499 59.2558 71.2499 59.5C71.2499 59.7442 71.2984 59.986 71.3927 60.2116C71.4869 60.4372 71.625 60.6422 71.7991 60.8148L74.2235 63.2188L71.7991 65.6227C71.625 65.7953 71.4869 66.0003 71.3927 66.2259C71.2984 66.4515 71.2499 66.6933 71.2499 66.9375C71.2499 67.1817 71.2984 67.4235 71.3927 67.6491C71.4869 67.8747 71.625 68.0797 71.7991 68.2523L75 71.4263V75.1817L67.5 79.6442L60 75.1817V42.6194L63.75 44.6854V65.0781H67.5V45.821C68.616 45.8197 69.7132 45.5358 70.6875 44.9962L75 42.6199V47.5737ZM52.5 19.4697C52.5002 18.9724 52.6344 18.4841 52.8887 18.0554C53.143 17.6267 53.5082 17.2732 53.9466 17.0314L66.1341 10.3172C66.5513 10.0854 67.0216 9.96369 67.4999 9.96369C67.9782 9.96369 68.4484 10.0854 68.8657 10.3172L81.0532 17.0314C81.4916 17.2731 81.8568 17.6266 82.1112 18.0553C82.3656 18.484 82.4998 18.9723 82.5 19.4697V32.593C82.4998 33.0903 82.3656 33.5786 82.1113 34.0072C81.857 34.4359 81.4917 34.7894 81.0534 35.0311L68.8659 41.7453C68.4487 41.9771 67.9784 42.0988 67.5001 42.0988C67.0218 42.0988 66.5516 41.9771 66.1343 41.7453L53.9468 35.0311C53.5084 34.7894 53.1432 34.4359 52.8888 34.0073C52.6344 33.5786 52.5002 33.0904 52.5 32.593V19.4697Z" fill="#1d1858"/>
<path d="M67.5 26.0312C68.6125 26.0312 69.7001 25.7041 70.6251 25.0912C71.5501 24.4782 72.2711 23.607 72.6968 22.5878C73.1226 21.5685 73.234 20.4469 73.0169 19.3649C72.7999 18.2828 72.2641 17.2889 71.4775 16.5088C70.6908 15.7287 69.6885 15.1974 68.5974 14.9822C67.5062 14.7669 66.3752 14.8774 65.3474 15.2996C64.3196 15.7218 63.4411 16.4368 62.823 17.3541C62.2049 18.2714 61.875 19.3499 61.875 20.4531C61.8767 21.932 62.4699 23.3498 63.5244 24.3955C64.579 25.4413 66.0087 26.0295 67.5 26.0312V26.0312ZM67.5 18.5937C67.8708 18.5937 68.2333 18.7028 68.5417 18.9071C68.85 19.1114 69.0904 19.4018 69.2323 19.7416C69.3742 20.0813 69.4113 20.4552 69.339 20.8159C69.2666 21.1766 69.088 21.5079 68.8258 21.7679C68.5636 22.0279 68.2295 22.205 67.8658 22.2768C67.5021 22.3485 67.1251 22.3117 66.7825 22.171C66.4399 22.0302 66.147 21.7919 65.941 21.4861C65.735 21.1804 65.625 20.8209 65.625 20.4531C65.6256 19.9602 65.8233 19.4875 66.1748 19.139C66.5263 18.7904 67.0029 18.5943 67.5 18.5937Z" fill="#1d1858"/>
<path d="M61.875 29.75H73.125V33.4688H61.875V29.75Z" fill="#1d1858"/>
<path d="M63.75 68.7969H67.5V72.5156H63.75V68.7969Z" fill="#1d1858"/>
<path d="M100.764 93.2525C100.432 92.4031 99.9305 91.6289 99.2896 90.9763C98.6488 90.3237 97.8817 89.8061 97.0343 89.4545C96.2022 89.1049 95.3075 88.9255 94.4038 88.927C93.5001 88.9285 92.606 89.111 91.7752 89.4634L79.653 94.5676C79.747 93.6614 79.6482 92.7458 79.363 91.8799C79.0778 91.0139 78.6125 90.217 77.9972 89.5406C77.382 88.8642 76.6304 88.3233 75.7911 87.953C74.9519 87.5826 74.0436 87.391 73.125 87.3906H58.5806C57.1097 87.3888 55.6591 87.0492 54.3427 86.3984C48.2574 83.3902 41.5521 81.8205 34.7527 81.8125H30C30 81.3194 29.8025 80.8464 29.4508 80.4977C29.0992 80.149 28.6223 79.9531 28.125 79.9531H3.75V83.6719H26.25V105.984H3.75V109.703H28.125C28.6223 109.703 29.0992 109.507 29.4508 109.159C29.8025 108.81 30 108.337 30 107.844V107.135L43.9987 112.899C51.6301 115.989 60.1612 116.082 67.8595 113.16L96.8241 102.208C97.6732 101.888 98.4494 101.403 99.107 100.782C99.7646 100.16 100.29 99.4147 100.654 98.5889C101.029 97.7515 101.233 96.8481 101.252 95.9318C101.27 95.0154 101.105 94.1045 100.764 93.2525V93.2525ZM97.223 97.0875C97.059 97.4627 96.8211 97.8016 96.5233 98.0844C96.2255 98.3673 95.8737 98.5882 95.4886 98.7344L66.5234 109.687C59.7165 112.271 52.173 112.19 45.4242 109.46L30 103.108V85.5312H34.7527C40.97 85.5385 47.1012 86.9738 52.6655 89.7246C54.5029 90.6329 56.5275 91.1068 58.5806 91.1094H73.125C73.8602 91.1104 74.5658 91.397 75.0904 91.9078C75.615 92.4186 75.917 93.1129 75.9315 93.8418C75.946 94.5708 75.6719 95.2764 75.168 95.8073C74.6641 96.3382 73.9705 96.6522 73.2359 96.6819C73.1604 96.684 73.0852 96.6875 73.0095 96.6875H50.625V100.406H73.0095C73.0481 100.406 73.0863 100.404 73.125 100.403V100.406C73.2558 100.406 73.3854 100.401 73.5143 100.394C74.9086 100.336 76.2808 100.029 77.565 99.4875L93.2393 92.8867C93.6095 92.7299 94.0077 92.6488 94.4102 92.6482C94.8127 92.6476 95.2112 92.7275 95.5819 92.8832C95.9669 93.0439 96.3152 93.28 96.606 93.5773C96.8968 93.8747 97.124 94.2273 97.2741 94.6138C97.4321 95.0087 97.5089 95.4309 97.5002 95.8557C97.4914 96.2804 97.3971 96.6991 97.223 97.0873V97.0875Z" fill="#1d1858"/>
<path d="M18.75 98.5469H22.5V102.266H18.75V98.5469Z" fill="#1d1858"/>
<path d="M48.75 44.625H52.5V68.7969H48.75V44.625Z" fill="#1d1858"/>
<path d="M16.7357 64.4384L7.82586 55.5285L4 59.3544L16.7357 72.0901L43 45.8259L39.1741 42L16.7357 64.4384Z" fill="#1d1858" stroke="#1d1858" stroke-width="1.51793" stroke-linejoin="round"/>
</svg>
